<svg width="303" height="50" viewBox="0 0 303 50" fill="none" xmlns="http://www.w3.org/2000/svg">
<g filter="url(#filter0_b_323_120353)">
<rect x="1" y="1" width="301" height="48" rx="24" fill="url(#paint0_linear_323_120353)"/>
<path d="M68.33 30.265H69.35L71.6 21.265H70.58L70.76 20.53H78.245L77.585 23.17H76.295L76.76 21.325H73.295L72.335 25.18H74.705L74.99 24.07H75.875L75.11 27.085H74.225L74.51 25.975H72.14L71.075 30.205H74.675L75.185 28.165H76.475L75.77 31H68.15L68.33 30.265ZM79.3802 31.18C78.9602 31.18 78.6402 31.085 78.4202 30.895C78.2002 30.705 78.0902 30.46 78.0902 30.16C78.0902 29.84 78.1852 29.565 78.3752 29.335C78.5752 29.105 78.8352 28.99 79.1552 28.99C79.4052 28.99 79.6052 29.06 79.7552 29.2C79.9052 29.34 79.9802 29.525 79.9802 29.755C79.9802 29.895 79.9502 30.035 79.8902 30.175C79.8302 30.315 79.7602 30.425 79.6802 30.505L79.7702 30.58C79.9302 30.55 80.1002 30.445 80.2802 30.265C80.4602 30.085 80.6402 29.85 80.8202 29.56C81.0102 29.27 81.1952 28.93 81.3752 28.54C81.5652 28.15 81.7452 27.725 81.9152 27.265L81.1502 24.16L80.9102 24.115L79.6352 25.465L79.2302 25.135L79.9952 24.19C80.3752 23.72 80.6952 23.41 80.9552 23.26C81.2252 23.1 81.4852 23.02 81.7352 23.02C82.0552 23.02 82.2902 23.105 82.4402 23.275C82.5902 23.445 82.6902 23.68 82.7402 23.98L83.1152 26.11H83.2202C83.3502 25.73 83.4852 25.375 83.6252 25.045C83.7652 24.715 83.9202 24.42 84.0902 24.16C84.3602 23.75 84.6602 23.46 84.9902 23.29C85.3202 23.11 85.6402 23.02 85.9502 23.02C86.3702 23.02 86.6902 23.115 86.9102 23.305C87.1302 23.495 87.2402 23.74 87.2402 24.04C87.2402 24.36 87.1402 24.635 86.9402 24.865C86.7502 25.095 86.4952 25.21 86.1752 25.21C85.9252 25.21 85.7252 25.14 85.5752 25C85.4252 24.86 85.3502 24.675 85.3502 24.445C85.3502 24.305 85.3802 24.165 85.4402 24.025C85.5002 23.885 85.5702 23.775 85.6502 23.695L85.5602 23.62C85.3902 23.65 85.2152 23.755 85.0352 23.935C84.8652 24.115 84.6852 24.35 84.4952 24.64C84.3152 24.93 84.1302 25.27 83.9402 25.66C83.7602 26.05 83.5852 26.475 83.4152 26.935L84.1802 30.04L84.4202 30.085L85.6952 28.735L86.1002 29.065L85.3352 30.01C84.9552 30.48 84.6302 30.795 84.3602 30.955C84.1002 31.105 83.8452 31.18 83.5952 31.18C83.2752 31.18 83.0402 31.095 82.8902 30.925C82.7402 30.755 82.6402 30.52 82.5902 30.22L82.2152 28.09H82.1102C81.9802 28.47 81.8452 28.825 81.7052 29.155C81.5652 29.485 81.4102 29.78 81.2402 30.04C80.9702 30.45 80.6702 30.745 80.3402 30.925C80.0102 31.095 79.6902 31.18 79.3802 31.18ZM86.7425 33.28H87.7475L89.9825 24.31H88.6925L88.8575 23.635L91.7825 23.02L91.0925 25.72L91.2425 25.765C91.4225 25.385 91.6075 25.03 91.7975 24.7C91.9875 24.36 92.1925 24.07 92.4125 23.83C92.6425 23.58 92.8875 23.385 93.1475 23.245C93.4175 23.095 93.7175 23.02 94.0475 23.02C94.6075 23.02 95.0075 23.215 95.2475 23.605C95.4975 23.995 95.6225 24.55 95.6225 25.27C95.6225 25.89 95.5325 26.55 95.3525 27.25C95.1725 27.94 94.9125 28.58 94.5725 29.17C94.2425 29.75 93.8325 30.23 93.3425 30.61C92.8625 30.99 92.3225 31.18 91.7225 31.18C90.9325 31.18 90.4375 30.815 90.2375 30.085H90.0875L89.3675 33.28H90.7175L90.5375 34H86.5625L86.7425 33.28ZM91.2725 30.265C91.7325 30.265 92.1625 30.045 92.5625 29.605C92.9725 29.155 93.3025 28.475 93.5525 27.565C93.5925 27.395 93.6375 27.205 93.6875 26.995C93.7375 26.775 93.7775 26.555 93.8075 26.335C93.8475 26.115 93.8775 25.905 93.8975 25.705C93.9275 25.505 93.9425 25.33 93.9425 25.18C93.9425 24.86 93.9075 24.61 93.8375 24.43C93.7675 24.25 93.6275 24.16 93.4175 24.16C93.1275 24.16 92.8325 24.315 92.5325 24.625C92.2425 24.925 91.9625 25.295 91.6925 25.735C91.4325 26.165 91.2025 26.62 91.0025 27.1C90.8025 27.58 90.6575 27.995 90.5675 28.345L90.4925 28.645C90.3725 29.125 90.3725 29.515 90.4925 29.815C90.6125 30.115 90.8725 30.265 91.2725 30.265ZM98.4993 31.18C98.0993 31.18 97.8093 31.075 97.6293 30.865C97.4593 30.655 97.3743 30.42 97.3743 30.16C97.3743 30.05 97.3843 29.925 97.4043 29.785C97.4343 29.645 97.4643 29.52 97.4943 29.41L99.6243 20.89H98.3343L98.4993 20.215L101.559 19.6L98.9493 30.055L99.2193 30.175L100.779 28.465L101.229 28.765L100.254 30.01C99.9043 30.48 99.5893 30.795 99.3093 30.955C99.0293 31.105 98.7593 31.18 98.4993 31.18ZM105.172 30.475C105.432 30.475 105.662 30.42 105.862 30.31C106.072 30.19 106.257 30.03 106.417 29.83C106.587 29.62 106.727 29.38 106.837 29.11C106.957 28.83 107.057 28.53 107.137 28.21C107.277 27.66 107.392 27.205 107.482 26.845C107.572 26.475 107.642 26.175 107.692 25.945C107.742 25.705 107.777 25.515 107.797 25.375C107.817 25.235 107.827 25.11 107.827 25C107.827 24.63 107.752 24.325 107.602 24.085C107.452 23.845 107.187 23.725 106.807 23.725C106.547 23.725 106.312 23.785 106.102 23.905C105.902 24.015 105.717 24.175 105.547 24.385C105.387 24.585 105.247 24.825 105.127 25.105C105.017 25.375 104.922 25.67 104.842 25.99C104.702 26.54 104.587 27 104.497 27.37C104.407 27.73 104.337 28.03 104.287 28.27C104.237 28.5 104.202 28.69 104.182 28.84C104.162 28.98 104.152 29.1 104.152 29.2C104.152 29.57 104.227 29.875 104.377 30.115C104.527 30.355 104.792 30.475 105.172 30.475ZM105.097 31.18C104.277 31.18 103.657 30.93 103.237 30.43C102.827 29.92 102.622 29.235 102.622 28.375C102.622 27.795 102.717 27.19 102.907 26.56C103.097 25.93 103.372 25.355 103.732 24.835C104.092 24.305 104.537 23.87 105.067 23.53C105.597 23.19 106.202 23.02 106.882 23.02C107.702 23.02 108.317 23.275 108.727 23.785C109.147 24.285 109.357 24.965 109.357 25.825C109.357 26.405 109.262 27.01 109.072 27.64C108.882 28.27 108.607 28.85 108.247 29.38C107.887 29.9 107.442 30.33 106.912 30.67C106.382 31.01 105.777 31.18 105.097 31.18ZM112.74 24.31H111.45L111.615 23.635L114.525 23.02L113.835 25.75L113.985 25.795C114.165 25.345 114.345 24.95 114.525 24.61C114.705 24.26 114.895 23.97 115.095 23.74C115.295 23.5 115.515 23.32 115.755 23.2C115.995 23.08 116.26 23.02 116.55 23.02C116.96 23.02 117.27 23.125 117.48 23.335C117.7 23.535 117.81 23.795 117.81 24.115C117.81 24.415 117.715 24.68 117.525 24.91C117.335 25.14 117.075 25.255 116.745 25.255C116.495 25.255 116.29 25.185 116.13 25.045C115.98 24.905 115.905 24.72 115.905 24.49C115.905 24.35 115.935 24.215 115.995 24.085C116.065 23.945 116.14 23.835 116.22 23.755L116.13 23.65C115.87 23.7 115.59 23.925 115.29 24.325C114.99 24.715 114.69 25.22 114.39 25.84C114.3 26.03 114.195 26.26 114.075 26.53C113.955 26.8 113.835 27.095 113.715 27.415C113.605 27.725 113.495 28.05 113.385 28.39C113.275 28.73 113.18 29.06 113.1 29.38L112.695 31H111.075L112.74 24.31ZM120.665 31.18C119.935 31.18 119.4 30.97 119.06 30.55C118.73 30.13 118.565 29.515 118.565 28.705C118.565 28.325 118.6 27.92 118.67 27.49C118.74 27.06 118.845 26.635 118.985 26.215C119.135 25.795 119.325 25.395 119.555 25.015C119.785 24.625 120.055 24.285 120.365 23.995C120.675 23.695 121.025 23.46 121.415 23.29C121.815 23.11 122.26 23.02 122.75 23.02C123.01 23.02 123.26 23.05 123.5 23.11C123.75 23.16 123.97 23.245 124.16 23.365C124.36 23.485 124.515 23.645 124.625 23.845C124.745 24.045 124.805 24.29 124.805 24.58C124.805 24.84 124.74 25.11 124.61 25.39C124.48 25.66 124.25 25.915 123.92 26.155C123.6 26.395 123.16 26.6 122.6 26.77C122.04 26.94 121.335 27.055 120.485 27.115C120.405 27.435 120.34 27.755 120.29 28.075C120.25 28.385 120.23 28.665 120.23 28.915C120.23 29.765 120.56 30.19 121.22 30.19C121.67 30.19 122.095 30 122.495 29.62C122.905 29.24 123.29 28.71 123.65 28.03L124.16 28.27C123.92 28.75 123.68 29.175 123.44 29.545C123.2 29.905 122.94 30.21 122.66 30.46C122.39 30.7 122.09 30.88 121.76 31C121.43 31.12 121.065 31.18 120.665 31.18ZM120.605 26.59C121.605 26.46 122.315 26.225 122.735 25.885C123.155 25.535 123.365 25.095 123.365 24.565C123.365 24.315 123.305 24.11 123.185 23.95C123.075 23.79 122.88 23.71 122.6 23.71C122.38 23.71 122.18 23.76 122 23.86C121.82 23.95 121.65 24.11 121.49 24.34C121.33 24.56 121.175 24.855 121.025 25.225C120.885 25.595 120.745 26.05 120.605 26.59ZM132.004 21.265H131.254L131.434 20.53H134.959L134.779 21.265H133.684L133.444 29.005H133.534L137.704 20.53H139.219L139.174 29.005H139.264L142.879 21.265H141.784L141.964 20.53H144.859L144.679 21.265H143.929L139.189 31H137.629L137.704 22.63H137.599L133.444 31H131.824L132.004 21.265ZM146.25 31.18C145.52 31.18 144.985 30.97 144.645 30.55C144.315 30.13 144.15 29.515 144.15 28.705C144.15 28.325 144.185 27.92 144.255 27.49C144.325 27.06 144.43 26.635 144.57 26.215C144.72 25.795 144.91 25.395 145.14 25.015C145.37 24.625 145.64 24.285 145.95 23.995C146.26 23.695 146.61 23.46 147 23.29C147.4 23.11 147.845 23.02 148.335 23.02C148.595 23.02 148.845 23.05 149.085 23.11C149.335 23.16 149.555 23.245 149.745 23.365C149.945 23.485 150.1 23.645 150.21 23.845C150.33 24.045 150.39 24.29 150.39 24.58C150.39 24.84 150.325 25.11 150.195 25.39C150.065 25.66 149.835 25.915 149.505 26.155C149.185 26.395 148.745 26.6 148.185 26.77C147.625 26.94 146.92 27.055 146.07 27.115C145.99 27.435 145.925 27.755 145.875 28.075C145.835 28.385 145.815 28.665 145.815 28.915C145.815 29.765 146.145 30.19 146.805 30.19C147.255 30.19 147.68 30 148.08 29.62C148.49 29.24 148.875 28.71 149.235 28.03L149.745 28.27C149.505 28.75 149.265 29.175 149.025 29.545C148.785 29.905 148.525 30.21 148.245 30.46C147.975 30.7 147.675 30.88 147.345 31C147.015 31.12 146.65 31.18 146.25 31.18ZM146.19 26.59C147.19 26.46 147.9 26.225 148.32 25.885C148.74 25.535 148.95 25.095 148.95 24.565C148.95 24.315 148.89 24.11 148.77 23.95C148.66 23.79 148.465 23.71 148.185 23.71C147.965 23.71 147.765 23.76 147.585 23.86C147.405 23.95 147.235 24.11 147.075 24.34C146.915 24.56 146.76 24.855 146.61 25.225C146.47 25.595 146.33 26.05 146.19 26.59ZM153.345 31.18C152.785 31.18 152.38 30.985 152.13 30.595C151.89 30.205 151.77 29.65 151.77 28.93C151.77 28.31 151.86 27.655 152.04 26.965C152.22 26.265 152.48 25.625 152.82 25.045C153.16 24.455 153.565 23.97 154.035 23.59C154.515 23.21 155.055 23.02 155.655 23.02C156.105 23.02 156.44 23.12 156.66 23.32C156.89 23.52 157.055 23.78 157.155 24.1H157.305L158.04 20.89H156.75L156.915 20.215L159.975 19.6L157.335 30.055L157.605 30.175L159.165 28.465L159.615 28.765L158.64 30.01C158.3 30.46 158.005 30.77 157.755 30.94C157.505 31.1 157.25 31.18 156.99 31.18C156.61 31.18 156.34 31.08 156.18 30.88C156.03 30.68 155.955 30.45 155.955 30.19C155.955 30.06 155.965 29.92 155.985 29.77C156.015 29.62 156.045 29.49 156.075 29.38L156.3 28.48L156.15 28.435C155.97 28.825 155.785 29.19 155.595 29.53C155.405 29.86 155.195 30.15 154.965 30.4C154.745 30.64 154.5 30.83 154.23 30.97C153.96 31.11 153.665 31.18 153.345 31.18ZM153.975 30.04C154.165 30.04 154.36 29.97 154.56 29.83C154.76 29.68 154.955 29.49 155.145 29.26C155.345 29.02 155.53 28.75 155.7 28.45C155.88 28.15 156.045 27.845 156.195 27.535C156.345 27.225 156.47 26.925 156.57 26.635C156.68 26.345 156.765 26.09 156.825 25.87L156.9 25.57C157.03 25.09 157.03 24.7 156.9 24.4C156.78 24.09 156.52 23.935 156.12 23.935C155.66 23.935 155.225 24.16 154.815 24.61C154.415 25.05 154.09 25.725 153.84 26.635C153.79 26.805 153.74 27 153.69 27.22C153.65 27.43 153.61 27.645 153.57 27.865C153.54 28.085 153.51 28.295 153.48 28.495C153.46 28.695 153.45 28.87 153.45 29.02C153.45 29.34 153.485 29.59 153.555 29.77C153.625 29.95 153.765 30.04 153.975 30.04ZM162.606 31.18C162.046 31.18 161.641 30.985 161.391 30.595C161.151 30.205 161.031 29.65 161.031 28.93C161.031 28.31 161.121 27.655 161.301 26.965C161.481 26.265 161.741 25.625 162.081 25.045C162.421 24.455 162.826 23.97 163.296 23.59C163.776 23.21 164.316 23.02 164.916 23.02C165.366 23.02 165.701 23.12 165.921 23.32C166.151 23.52 166.316 23.78 166.416 24.1H166.566L167.301 20.89H166.011L166.176 20.215L169.236 19.6L166.596 30.055L166.866 30.175L168.426 28.465L168.876 28.765L167.901 30.01C167.561 30.46 167.266 30.77 167.016 30.94C166.766 31.1 166.511 31.18 166.251 31.18C165.871 31.18 165.601 31.08 165.441 30.88C165.291 30.68 165.216 30.45 165.216 30.19C165.216 30.06 165.226 29.92 165.246 29.77C165.276 29.62 165.306 29.49 165.336 29.38L165.561 28.48L165.411 28.435C165.231 28.825 165.046 29.19 164.856 29.53C164.666 29.86 164.456 30.15 164.226 30.4C164.006 30.64 163.761 30.83 163.491 30.97C163.221 31.11 162.926 31.18 162.606 31.18ZM163.236 30.04C163.426 30.04 163.621 29.97 163.821 29.83C164.021 29.68 164.216 29.49 164.406 29.26C164.606 29.02 164.791 28.75 164.961 28.45C165.141 28.15 165.306 27.845 165.456 27.535C165.606 27.225 165.731 26.925 165.831 26.635C165.941 26.345 166.026 26.09 166.086 25.87L166.161 25.57C166.291 25.09 166.291 24.7 166.161 24.4C166.041 24.09 165.781 23.935 165.381 23.935C164.921 23.935 164.486 24.16 164.076 24.61C163.676 25.05 163.351 25.725 163.101 26.635C163.051 26.805 163.001 27 162.951 27.22C162.911 27.43 162.871 27.645 162.831 27.865C162.801 28.085 162.771 28.295 162.741 28.495C162.721 28.695 162.711 28.87 162.711 29.02C162.711 29.34 162.746 29.59 162.816 29.77C162.886 29.95 163.026 30.04 163.236 30.04ZM171.641 31.18C171.241 31.18 170.951 31.075 170.771 30.865C170.601 30.655 170.516 30.42 170.516 30.16C170.516 30.05 170.531 29.925 170.561 29.785C170.591 29.645 170.616 29.52 170.636 29.41L171.911 24.31H170.621L170.786 23.635L173.846 23.02L172.091 30.055L172.361 30.175L173.921 28.465L174.371 28.765L173.396 30.01C173.046 30.48 172.731 30.795 172.451 30.955C172.171 31.105 171.901 31.18 171.641 31.18ZM173.426 21.625C173.136 21.625 172.916 21.55 172.766 21.4C172.616 21.24 172.541 21.06 172.541 20.86C172.541 20.75 172.556 20.64 172.586 20.53C172.646 20.28 172.771 20.08 172.961 19.93C173.161 19.78 173.401 19.705 173.681 19.705C173.971 19.705 174.191 19.785 174.341 19.945C174.491 20.095 174.566 20.27 174.566 20.47C174.566 20.52 174.561 20.575 174.551 20.635C174.551 20.695 174.541 20.75 174.521 20.8C174.461 21.05 174.331 21.25 174.131 21.4C173.941 21.55 173.706 21.625 173.426 21.625ZM181.143 31.18C180.743 31.18 180.458 31.075 180.288 30.865C180.118 30.655 180.033 30.42 180.033 30.16C180.033 30.05 180.043 29.93 180.063 29.8C180.093 29.66 180.123 29.535 180.153 29.425L181.398 24.895C181.428 24.775 181.443 24.665 181.443 24.565C181.443 24.285 181.313 24.145 181.053 24.145C180.813 24.145 180.538 24.275 180.228 24.535C179.928 24.785 179.628 25.125 179.328 25.555C179.028 25.985 178.743 26.49 178.473 27.07C178.213 27.64 178.003 28.245 177.843 28.885L177.318 31H175.698L177.363 24.31H176.073L176.238 23.635L179.178 23.02L178.473 25.825L178.623 25.87C178.823 25.5 179.028 25.145 179.238 24.805C179.448 24.465 179.673 24.165 179.913 23.905C180.163 23.635 180.433 23.42 180.723 23.26C181.013 23.1 181.338 23.02 181.698 23.02C182.178 23.02 182.523 23.15 182.733 23.41C182.943 23.66 183.048 23.99 183.048 24.4C183.048 24.54 183.033 24.69 183.003 24.85C182.983 25.01 182.948 25.175 182.898 25.345L181.608 30.055L181.878 30.175L183.438 28.465L183.888 28.765L182.913 30.01C182.573 30.46 182.263 30.77 181.983 30.94C181.713 31.1 181.433 31.18 181.143 31.18ZM186.842 34.18C186.272 34.18 185.787 34.14 185.387 34.06C184.997 33.98 184.677 33.865 184.427 33.715C184.167 33.575 183.982 33.41 183.872 33.22C183.752 33.03 183.692 32.825 183.692 32.605C183.692 32.355 183.762 32.13 183.902 31.93C184.032 31.74 184.212 31.57 184.442 31.42C184.662 31.27 184.912 31.14 185.192 31.03C185.472 30.93 185.757 30.84 186.047 30.76L186.077 30.64C185.797 30.5 185.582 30.345 185.432 30.175C185.292 29.995 185.222 29.775 185.222 29.515C185.222 29.295 185.267 29.1 185.357 28.93C185.447 28.76 185.567 28.615 185.717 28.495C185.867 28.365 186.037 28.26 186.227 28.18C186.417 28.1 186.612 28.035 186.812 27.985L186.827 27.865C186.547 27.695 186.327 27.47 186.167 27.19C186.007 26.9 185.927 26.555 185.927 26.155C185.927 25.695 186.017 25.275 186.197 24.895C186.377 24.505 186.622 24.17 186.932 23.89C187.252 23.61 187.622 23.395 188.042 23.245C188.462 23.095 188.912 23.02 189.392 23.02C189.622 23.02 189.832 23.045 190.022 23.095C190.222 23.145 190.407 23.21 190.577 23.29C190.697 22.82 190.867 22.455 191.087 22.195C191.307 21.925 191.592 21.79 191.942 21.79C192.192 21.79 192.387 21.855 192.527 21.985C192.667 22.105 192.737 22.27 192.737 22.48C192.737 22.71 192.657 22.905 192.497 23.065C192.347 23.225 192.162 23.305 191.942 23.305C191.592 23.305 191.372 23.135 191.282 22.795H191.207L190.952 23.545C191.152 23.725 191.302 23.94 191.402 24.19C191.512 24.43 191.567 24.71 191.567 25.03C191.567 25.49 191.472 25.915 191.282 26.305C191.102 26.685 190.852 27.015 190.532 27.295C190.222 27.565 189.857 27.775 189.437 27.925C189.027 28.075 188.587 28.15 188.117 28.15C187.867 28.15 187.657 28.13 187.487 28.09C187.247 28.13 187.022 28.205 186.812 28.315C186.612 28.425 186.512 28.59 186.512 28.81C186.512 28.97 186.582 29.09 186.722 29.17C186.872 29.25 187.072 29.33 187.322 29.41L188.717 29.905C189.417 30.145 189.942 30.405 190.292 30.685C190.642 30.965 190.817 31.355 190.817 31.855C190.817 32.275 190.707 32.63 190.487 32.92C190.267 33.21 189.972 33.45 189.602 33.64C189.232 33.83 188.807 33.965 188.327 34.045C187.857 34.135 187.362 34.18 186.842 34.18ZM188.282 27.535C188.692 27.535 189.012 27.39 189.242 27.1C189.482 26.81 189.662 26.425 189.782 25.945C189.882 25.535 189.952 25.23 189.992 25.03C190.032 24.82 190.052 24.66 190.052 24.55C190.052 24.26 189.987 24.035 189.857 23.875C189.727 23.715 189.512 23.635 189.212 23.635C188.802 23.635 188.477 23.78 188.237 24.07C188.007 24.36 187.832 24.745 187.712 25.225C187.612 25.635 187.542 25.945 187.502 26.155C187.462 26.355 187.442 26.51 187.442 26.62C187.442 26.91 187.507 27.135 187.637 27.295C187.767 27.455 187.982 27.535 188.282 27.535ZM187.052 33.655C187.332 33.655 187.607 33.63 187.877 33.58C188.147 33.54 188.387 33.465 188.597 33.355C188.807 33.255 188.977 33.12 189.107 32.95C189.237 32.79 189.302 32.59 189.302 32.35C189.302 32.07 189.212 31.865 189.032 31.735C188.852 31.615 188.597 31.5 188.267 31.39L186.692 30.865C186.462 30.945 186.242 31.035 186.032 31.135C185.832 31.235 185.652 31.35 185.492 31.48C185.332 31.61 185.207 31.755 185.117 31.915C185.027 32.075 184.982 32.25 184.982 32.44C184.982 32.8 185.142 33.09 185.462 33.31C185.792 33.54 186.322 33.655 187.052 33.655ZM199.161 21.265H198.411L198.591 20.53H202.116L201.936 21.265H200.841L200.601 29.005H200.691L204.861 20.53H206.376L206.331 29.005H206.421L210.036 21.265H208.941L209.121 20.53H212.016L211.836 21.265H211.086L206.346 31H204.786L204.861 22.63H204.756L200.601 31H198.981L199.161 21.265ZM213.408 31.18C212.678 31.18 212.143 30.97 211.803 30.55C211.473 30.13 211.308 29.515 211.308 28.705C211.308 28.325 211.343 27.92 211.413 27.49C211.483 27.06 211.588 26.635 211.728 26.215C211.878 25.795 212.068 25.395 212.298 25.015C212.528 24.625 212.798 24.285 213.108 23.995C213.418 23.695 213.768 23.46 214.158 23.29C214.558 23.11 215.003 23.02 215.493 23.02C215.753 23.02 216.003 23.05 216.243 23.11C216.493 23.16 216.713 23.245 216.903 23.365C217.103 23.485 217.258 23.645 217.368 23.845C217.488 24.045 217.548 24.29 217.548 24.58C217.548 24.84 217.483 25.11 217.353 25.39C217.223 25.66 216.993 25.915 216.663 26.155C216.343 26.395 215.903 26.6 215.343 26.77C214.783 26.94 214.078 27.055 213.228 27.115C213.148 27.435 213.083 27.755 213.033 28.075C212.993 28.385 212.973 28.665 212.973 28.915C212.973 29.765 213.303 30.19 213.963 30.19C214.413 30.19 214.838 30 215.238 29.62C215.648 29.24 216.033 28.71 216.393 28.03L216.903 28.27C216.663 28.75 216.423 29.175 216.183 29.545C215.943 29.905 215.683 30.21 215.403 30.46C215.133 30.7 214.833 30.88 214.503 31C214.173 31.12 213.808 31.18 213.408 31.18ZM213.348 26.59C214.348 26.46 215.058 26.225 215.478 25.885C215.898 25.535 216.108 25.095 216.108 24.565C216.108 24.315 216.048 24.11 215.928 23.95C215.818 23.79 215.623 23.71 215.343 23.71C215.123 23.71 214.923 23.76 214.743 23.86C214.563 23.95 214.393 24.11 214.233 24.34C214.073 24.56 213.918 24.855 213.768 25.225C213.628 25.595 213.488 26.05 213.348 26.59ZM220.502 31.18C219.942 31.18 219.537 30.985 219.287 30.595C219.047 30.205 218.927 29.65 218.927 28.93C218.927 28.31 219.017 27.655 219.197 26.965C219.377 26.265 219.632 25.625 219.962 25.045C220.302 24.455 220.712 23.97 221.192 23.59C221.682 23.21 222.232 23.02 222.842 23.02C223.282 23.02 223.642 23.13 223.922 23.35C224.202 23.57 224.397 23.92 224.507 24.4H224.657L225.422 23.2H226.232L224.492 30.055L224.762 30.175L226.322 28.465L226.772 28.765L225.797 30.01C225.447 30.45 225.147 30.755 224.897 30.925C224.657 31.095 224.407 31.18 224.147 31.18C223.767 31.18 223.497 31.08 223.337 30.88C223.187 30.68 223.112 30.45 223.112 30.19C223.112 30.06 223.122 29.92 223.142 29.77C223.172 29.62 223.202 29.49 223.232 29.38L223.457 28.48L223.307 28.435C223.127 28.825 222.942 29.19 222.752 29.53C222.562 29.86 222.352 30.15 222.122 30.4C221.902 30.64 221.657 30.83 221.387 30.97C221.117 31.11 220.822 31.18 220.502 31.18ZM221.132 30.04C221.412 30.04 221.702 29.89 222.002 29.59C222.302 29.28 222.582 28.91 222.842 28.48C223.112 28.04 223.347 27.58 223.547 27.1C223.747 26.62 223.892 26.205 223.982 25.855L224.057 25.555C224.177 25.075 224.177 24.685 224.057 24.385C223.937 24.085 223.677 23.935 223.277 23.935C222.817 23.935 222.382 24.16 221.972 24.61C221.572 25.05 221.247 25.725 220.997 26.635C220.947 26.805 220.897 27 220.847 27.22C220.807 27.43 220.767 27.645 220.727 27.865C220.697 28.085 220.667 28.295 220.637 28.495C220.617 28.695 220.607 28.87 220.607 29.02C220.607 29.34 220.642 29.59 220.712 29.77C220.782 29.95 220.922 30.04 221.132 30.04ZM229.749 24.31H228.459L228.624 23.635L231.534 23.02L230.844 25.75L230.994 25.795C231.174 25.345 231.354 24.95 231.534 24.61C231.714 24.26 231.904 23.97 232.104 23.74C232.304 23.5 232.524 23.32 232.764 23.2C233.004 23.08 233.269 23.02 233.559 23.02C233.969 23.02 234.279 23.125 234.489 23.335C234.709 23.535 234.819 23.795 234.819 24.115C234.819 24.415 234.724 24.68 234.534 24.91C234.344 25.14 234.084 25.255 233.754 25.255C233.504 25.255 233.299 25.185 233.139 25.045C232.989 24.905 232.914 24.72 232.914 24.49C232.914 24.35 232.944 24.215 233.004 24.085C233.074 23.945 233.149 23.835 233.229 23.755L233.139 23.65C232.879 23.7 232.599 23.925 232.299 24.325C231.999 24.715 231.699 25.22 231.399 25.84C231.309 26.03 231.204 26.26 231.084 26.53C230.964 26.8 230.844 27.095 230.724 27.415C230.614 27.725 230.504 28.05 230.394 28.39C230.284 28.73 230.189 29.06 230.109 29.38L229.704 31H228.084L229.749 24.31Z" fill="white"/>
<rect x="1" y="1" width="301" height="48" rx="24" stroke="url(#paint1_linear_323_120353)" stroke-width="1.28571"/>
</g>
<defs>
<filter id="filter0_b_323_120353" x="-7.35686" y="-7.35686" width="317.714" height="64.7137" filterUnits="userSpaceOnUse" color-interpolation-filters="sRGB">
<feFlood flood-opacity="0" result="BackgroundImageFix"/>
<feGaussianBlur in="BackgroundImageFix" stdDeviation="3.85714"/>
<feComposite in2="SourceAlpha" operator="in" result="effect1_backgroundBlur_323_120353"/>
<feBlend mode="normal" in="SourceGraphic" in2="effect1_backgroundBlur_323_120353" result="shape"/>
</filter>
<linearGradient id="paint0_linear_323_120353" x1="-8.20488" y1="-21.2" x2="251.359" y2="129.599" gradientUnits="userSpaceOnUse">
<stop stop-color="#F29EB6"/>
<stop offset="1" stop-color="#E6116D"/>
</linearGradient>
<linearGradient id="paint1_linear_323_120353" x1="302" y1="28.5294" x2="1.11694" y2="20.5758" gradientUnits="userSpaceOnUse">
<stop stop-color="#FFDB7D"/>
<stop offset="1" stop-color="#FFDB7D" stop-opacity="0"/>
</linearGradient>
</defs>
</svg>
