<svg width="133" height="42" viewBox="0 0 133 42" fill="none" xmlns="http://www.w3.org/2000/svg">
<g clip-path="url(#clip0_1_47349)">
<path d="M53.1846 2.07919H54.6055V15.9405C54.6055 17.0956 54.0871 16.4218 53.9719 16.1908L45.2549 2.69525C43.0277 -0.635309 40.1477 2.13695 38.7269 0L38.0933 0.154014L39.4565 2.27171C39.6677 2.59899 39.7061 2.77226 39.7061 3.33056V24.1033C39.7061 25.5279 40.6469 26.0477 41.4149 26.0477H41.8181V24.6616H41.5685C41.2613 24.6616 41.0885 24.4113 41.0885 24.1033V5.39051C41.0885 4.8322 41.2613 5.04397 41.2997 5.12098L54.8359 26.0477H55.9879V2.07919H57.4663V0.789324H53.2038V2.07919H53.1846ZM19.3346 0.789324H0V2.07919H8.4865C8.14135 2.2536 7.85106 2.52036 7.64774 2.84994C7.44442 3.17952 7.336 3.55908 7.33449 3.94662V25.9129H9.92652C10.1991 25.914 10.4692 25.8609 10.7213 25.7567C10.9733 25.6526 11.2023 25.4995 11.3951 25.3062C11.5878 25.1129 11.7405 24.8833 11.8444 24.6306C11.9482 24.3779 12.0012 24.1071 12.0001 23.8337V3.25356C12.0001 2.46423 12.4801 2.05994 13.037 2.05994H19.3346V0.789324ZM75.4953 24.5461H66.0872C66.3588 24.3551 66.5808 24.1016 66.7345 23.8068C66.8882 23.512 66.9691 23.1845 66.9704 22.8519V14.6506C66.9704 14.1501 67.2584 13.8998 67.604 13.8998H74.0553V12.6099H67.604C67.1624 12.6099 66.9704 12.2634 66.9704 11.8591V3.25356C66.9704 2.46423 67.4504 2.05994 68.0072 2.05994H77.3193V0.789324H61.2295V2.07919H63.4568C63.1116 2.2536 62.8213 2.52036 62.618 2.84994C62.4147 3.17952 62.3063 3.55908 62.3047 3.94662V25.9129H75.6297C77.2809 25.9129 77.3961 24.7963 77.3961 23.9107H76.0521C76.0521 24.1995 76.0521 24.5461 75.4953 24.5461ZM35.6548 24.0263L28.4931 0.789324H27.0339L18.509 25.8937H19.1618C20.0066 23.4487 23.4819 25.4509 24.8259 21.6775L29.1075 9.0676C29.1843 8.81733 29.4148 8.56705 29.6836 9.39488V9.37563C31.6996 15.902 34.2532 24.1995 34.2532 24.1995C34.426 24.7578 34.81 26.0477 36.2692 26.0477H36.634V24.6616H36.3076C35.8852 24.6616 35.7508 24.3535 35.6548 24.0263ZM132.654 24.6616C132.251 24.6616 132.117 24.3535 132.021 24.0263L124.859 0.789324H123.4L114.875 25.8937H115.528C116.373 23.4487 119.848 25.4509 121.192 21.6775L125.474 9.0676C125.55 8.81733 125.781 8.56705 126.05 9.39488V9.37563C128.066 15.902 130.619 24.1995 130.619 24.1995C130.792 24.7578 131.176 26.0477 132.635 26.0477H133V24.6616H132.654ZM106.043 14.9201C107.7 14.4253 109.123 13.349 110.054 11.888C110.984 10.4271 111.359 8.67924 111.109 6.96404C110.86 5.24884 110.003 3.68097 108.696 2.54715C107.388 1.41334 105.717 0.789354 103.988 0.789324H93.3131V2.07919H95.7516C95.4064 2.2536 95.1161 2.52036 94.9128 2.84994C94.7095 3.17952 94.6011 3.55908 94.5995 3.94662V25.9129H97.1916C97.4642 25.914 97.7343 25.8609 97.9863 25.7567C98.2384 25.6526 98.4674 25.4995 98.6601 25.3062C98.8529 25.1129 99.0056 24.8833 99.1094 24.6306C99.2133 24.3779 99.2662 24.1071 99.2652 23.8337V3.25356C99.2652 2.46423 99.7452 2.05994 100.302 2.05994H103.969C104.746 2.05994 105.515 2.21332 106.232 2.5113C106.95 2.80929 107.602 3.24606 108.151 3.79667C108.7 4.34728 109.136 5.00095 109.433 5.72036C109.73 6.43976 109.883 7.21082 109.883 7.9895C109.883 8.76818 109.73 9.53924 109.433 10.2586C109.136 10.9781 108.7 11.6317 108.151 12.1823C107.602 12.7329 106.95 13.1697 106.232 13.4677C105.515 13.7657 104.746 13.9191 103.969 13.9191H100.264V15.2089H100.955C101.243 15.2089 101.8 15.3822 102.241 16.1715L106.081 23.1599C107.848 26.2787 110.517 23.8722 111.649 25.8744H112.302L106.504 15.3244C106.391 15.1493 106.231 15.0093 106.043 14.9201ZM81.1402 2.07919H83.5786C83.2335 2.2536 82.9432 2.52036 82.7398 2.84994C82.5365 3.17952 82.4281 3.55908 82.4266 3.94662V24.5653H81.1402V25.9129H88.3979V24.5653H86.2282C86.4999 24.3743 86.7219 24.1208 86.8755 23.826C87.0292 23.5312 87.1101 23.2038 87.1115 22.8711V3.25356C87.1115 2.46423 87.5915 2.05994 88.1483 2.05994H88.8971V0.789324H81.1402V2.07919Z" fill="#623C21"/>
<path fill-rule="evenodd" clip-rule="evenodd" d="M32.4472 41.1103V36.2011H30.5079V34.1027H37.0936V36.2396H35.308V41.1103H32.4472ZM46.6937 41.1103V36.2396H44.7929V34.1027H51.417V36.2781H49.5738V41.1103H46.6937ZM36.7864 41.1103L39.3976 34.1027H42.4697L45.0425 41.1103H42.2777L40.9337 37.0675L39.5897 41.1103H36.7864ZM51.033 41.1103L53.6442 34.1027H56.6778L59.2507 41.1103H56.5242L55.1802 37.0675L53.7594 41.1103H51.033ZM23.1927 35.2578L22.0022 38.4343H24.3063L23.1927 35.2578ZM22.3863 34.0642H24.0567L26.7831 41.1296H25.2855L24.7095 39.4547H21.6374L21.023 41.1296H19.6406L22.3863 34.0642ZM108.038 34.0834H113.146V35.1615H111.264V41.1103H109.882V35.1615H108.038V34.0834ZM106.829 34.3144L106.733 35.431C106.714 35.4118 106.675 35.4118 106.637 35.3925C106.156 35.1838 105.643 35.06 105.12 35.0268C104.352 35.0268 103.738 35.2578 103.277 35.7391C103.042 35.9953 102.86 36.2957 102.741 36.6228C102.623 36.9499 102.57 37.2973 102.586 37.645C102.57 37.9827 102.625 38.3199 102.748 38.6349C102.87 38.9498 103.057 39.2357 103.296 39.4739C103.548 39.7094 103.844 39.892 104.167 40.011C104.49 40.13 104.834 40.1831 105.178 40.167C105.579 40.1344 105.973 40.0436 106.349 39.8975C106.541 39.8397 106.675 39.8012 106.771 39.7627L106.886 40.8793C106.79 40.8986 106.675 40.9371 106.502 40.9756C106.035 41.1227 105.551 41.2132 105.062 41.2451C103.853 41.2451 102.893 40.9178 102.202 40.2633C101.51 39.6087 101.146 38.7231 101.146 37.6258C101.146 36.5284 101.491 35.6236 102.202 34.9305C102.912 34.2374 103.834 33.9102 104.986 33.9102C105.482 33.9369 105.972 34.0275 106.445 34.1797C106.618 34.2567 106.752 34.2759 106.829 34.3144ZM93.5423 34.0834H94.9247V38.2033C94.9247 38.8771 95.0399 39.3777 95.2703 39.7049C95.5007 40.0322 95.8655 40.1862 96.3455 40.1862C96.5595 40.1984 96.7731 40.1573 96.9674 40.0666C97.1617 39.9759 97.3306 39.8384 97.4591 39.6664C97.7087 39.3199 97.8431 38.8194 97.8431 38.1456V34.0834H99.1487V38.1648C99.1487 39.1852 98.9183 39.9745 98.4575 40.475C97.9967 40.9756 97.2863 41.2451 96.3455 41.2451C95.4047 41.2451 94.7327 40.9948 94.2719 40.475C93.8111 39.9552 93.5615 39.2044 93.5615 38.2033V34.0834H93.5423ZM85.5742 34.0834H87.571C88.0854 34.0768 88.5994 34.1155 89.107 34.1989C89.4744 34.2583 89.8266 34.3891 90.1438 34.584C90.6251 34.885 91.0165 35.3107 91.2766 35.8161C91.5297 36.3721 91.6607 36.9761 91.6607 37.5873C91.6607 38.1984 91.5297 38.8024 91.2766 39.3584C91.0146 39.8687 90.6156 40.2955 90.1246 40.5905C89.7988 40.8001 89.4323 40.9379 89.0494 40.9948C88.5295 41.0855 88.0027 41.1306 87.475 41.1296H85.5742V34.0834ZM86.9566 35.123V40.0322H87.763C88.531 40.0322 89.1454 39.8205 89.5678 39.3777C89.9902 38.9349 90.2206 38.3381 90.2206 37.568C90.2206 36.7979 90.0094 36.1819 89.5678 35.7583C89.1262 35.3348 88.5118 35.123 87.7054 35.123H86.9566ZM80.2365 33.9294C81.2733 33.9294 82.0797 34.2567 82.6749 34.9112C83.2701 35.5658 83.5582 36.4514 83.5582 37.6065C83.5582 38.7616 83.2701 39.6472 82.6749 40.3018C82.0797 40.9563 81.2733 41.2836 80.2365 41.2836C79.1997 41.2836 78.3933 40.9563 77.7981 40.3018C77.2029 39.6472 76.9149 38.7616 76.9149 37.6065C76.9149 36.4514 77.2029 35.5658 77.7981 34.9112C78.3933 34.2567 79.1997 33.9294 80.2365 33.9294ZM80.2365 34.969C79.9649 34.9614 79.6958 35.0226 79.4541 35.1472C79.2124 35.2717 79.006 35.4554 78.8541 35.6813C78.5085 36.1626 78.3357 36.7787 78.3357 37.568C78.3357 38.3573 78.5085 38.9926 78.8541 39.4739C79.0116 39.6941 79.2191 39.8735 79.4595 39.9973C79.6999 40.1211 79.9663 40.1856 80.2365 40.1856C80.5068 40.1856 80.7731 40.1211 81.0135 39.9973C81.2539 39.8735 81.4614 39.6941 81.6189 39.4739C81.995 38.9118 82.1833 38.2444 82.1565 37.568C82.1565 36.7787 81.9837 36.1434 81.6189 35.6813C81.464 35.4584 81.2571 35.277 81.0161 35.1528C80.7751 35.0286 80.5074 34.9655 80.2365 34.969ZM70.31 34.0834H72.614C73.478 34.0834 74.1116 34.2374 74.534 34.5262C74.7438 34.6796 74.9118 34.8834 75.0225 35.1189C75.1332 35.3544 75.1831 35.614 75.1677 35.8738C75.1826 36.281 75.0457 36.6791 74.7836 36.9904C74.4961 37.307 74.1105 37.5172 73.6892 37.5873C73.8699 37.6438 74.0345 37.7428 74.1692 37.876C74.3408 38.1113 74.4767 38.3709 74.5725 38.6461L75.5517 41.0911H74.0924L73.3052 38.9734C73.234 38.7176 73.0783 38.4936 72.8636 38.3381C72.6228 38.207 72.3499 38.1469 72.0764 38.1648H71.6348V41.1103H70.31V34.0834ZM71.6732 35.0653V37.183H72.3836C72.7485 37.2008 73.1101 37.1067 73.4204 36.9134C73.5432 36.8238 73.6411 36.7043 73.7049 36.5662C73.7687 36.4281 73.7964 36.2759 73.7852 36.1241C73.7985 35.9693 73.7718 35.8137 73.708 35.6721C73.6441 35.5306 73.5451 35.4078 73.4204 35.3155C73.1708 35.1423 72.806 35.0653 72.2684 35.0653H71.6732ZM63.8011 34.0834H65.894C66.7964 34.0834 67.4684 34.2567 67.91 34.6225C68.3516 34.9883 68.5628 35.5273 68.5628 36.2781C68.5789 36.58 68.5249 36.8814 68.405 37.1587C68.285 37.4361 68.1024 37.6816 67.8716 37.876C67.4108 38.2611 66.758 38.4536 65.9324 38.4536H65.1835V41.1296H63.8011V34.0834ZM65.1835 35.0653V37.4332H65.7404C66.2012 37.4332 66.5468 37.337 66.7772 37.1252C66.9013 37.0195 66.9991 36.8861 67.0624 36.7356C67.1258 36.5851 67.153 36.4218 67.142 36.2589C67.1519 36.095 67.1261 35.9309 67.0664 35.7779C67.0067 35.625 66.9146 35.4869 66.7964 35.3733C66.5209 35.1495 66.1707 35.0393 65.8172 35.0653H65.1835Z" fill="#623C21"/>
</g>
<defs>
<clipPath id="clip0_1_47349">
<rect width="133" height="41.2759" fill="white"/>
</clipPath>
</defs>
</svg>
