<svg width="240" height="41" viewBox="0 0 240 41" fill="none" xmlns="http://www.w3.org/2000/svg">
<rect y="0.476562" width="40" height="40" rx="20" fill="white"/>
<path d="M30 20.5371C30 15.0146 25.5225 10.5371 20 10.5371C14.4775 10.5371 10 15.0146 10 20.5371C10 25.5288 13.6567 29.6654 18.4375 30.4154V23.4279H15.8983V20.5363H18.4375V18.3346C18.4375 15.8288 19.9308 14.4438 22.215 14.4438C23.3083 14.4438 24.4533 14.6396 24.4533 14.6396V17.1004H23.1917C21.9492 17.1004 21.5617 17.8713 21.5617 18.6621V20.5371H24.335L23.8917 23.4288H21.5617V30.4163C26.3433 29.6654 30 25.5279 30 20.5371Z" fill="#B31851"/>
<rect x="50" y="0.476562" width="40" height="40" rx="20" fill="white"/>
<path d="M70 10.4766C67.2833 10.4766 66.9442 10.4891 65.8775 10.5366C64.8125 10.5866 64.0875 10.7541 63.45 11.0016C62.7925 11.2566 62.2342 11.5991 61.6783 12.1549C61.1225 12.7107 60.7792 13.2682 60.525 13.9266C60.2775 14.5641 60.1092 15.2891 60.06 16.3541C60.01 17.4207 60 17.7599 60 20.4766C60 23.1932 60.0125 23.5324 60.06 24.5991C60.11 25.6632 60.2775 26.3891 60.525 27.0266C60.78 27.6832 61.1225 28.2424 61.6783 28.7982C62.2342 29.3532 62.7917 29.6974 63.45 29.9516C64.0883 30.1982 64.8133 30.3674 65.8775 30.4166C66.9442 30.4666 67.2833 30.4766 70 30.4766C72.7167 30.4766 73.0558 30.4641 74.1225 30.4166C75.1867 30.3666 75.9125 30.1982 76.55 29.9516C77.2067 29.6966 77.7658 29.3532 78.3217 28.7982C78.8767 28.2424 79.2208 27.6857 79.475 27.0266C79.7217 26.3891 79.8908 25.6632 79.94 24.5991C79.99 23.5324 80 23.1932 80 20.4766C80 17.7599 79.9875 17.4207 79.94 16.3541C79.89 15.2899 79.7217 14.5632 79.475 13.9266C79.22 13.2691 78.8767 12.7107 78.3217 12.1549C77.7658 11.5991 77.2092 11.2557 76.55 11.0016C75.9125 10.7541 75.1867 10.5857 74.1225 10.5366C73.0558 10.4866 72.7167 10.4766 70 10.4766ZM70 12.2766C72.6692 12.2766 72.9875 12.2899 74.0417 12.3357C75.0167 12.3816 75.5458 12.5432 75.8975 12.6816C76.3658 12.8624 76.6975 13.0791 77.0492 13.4282C77.3983 13.7782 77.615 14.1107 77.7958 14.5791C77.9325 14.9307 78.0958 15.4599 78.14 16.4349C78.1875 17.4899 78.1983 17.8066 78.1983 20.4766C78.1983 23.1466 78.1858 23.4641 78.1367 24.5182C78.0858 25.4932 77.9233 26.0224 77.7858 26.3741C77.5992 26.8424 77.3867 27.1741 77.0367 27.5257C76.6875 27.8749 76.35 28.0916 75.8867 28.2724C75.5367 28.4091 74.9992 28.5724 74.0242 28.6166C72.9625 28.6641 72.65 28.6749 69.975 28.6749C67.2992 28.6749 66.9867 28.6624 65.9258 28.6132C64.95 28.5624 64.4125 28.3999 64.0625 28.2624C63.5883 28.0757 63.2625 27.8632 62.9133 27.5132C62.5625 27.1641 62.3383 26.8266 62.1633 26.3632C62.0258 26.0132 61.8642 25.4757 61.8133 24.5007C61.7758 23.4507 61.7625 23.1266 61.7625 20.4641C61.7625 17.8007 61.7758 17.4757 61.8133 16.4132C61.8642 15.4382 62.0258 14.9016 62.1633 14.5516C62.3383 14.0766 62.5625 13.7516 62.9133 13.4007C63.2625 13.0516 63.5883 12.8266 64.0625 12.6524C64.4125 12.5141 64.9383 12.3516 65.9133 12.3016C66.9758 12.2641 67.2883 12.2516 69.9625 12.2516L70 12.2766ZM70 15.3416C67.1625 15.3416 64.865 17.6416 64.865 20.4766C64.865 23.3141 67.165 25.6116 70 25.6116C72.8375 25.6116 75.135 23.3116 75.135 20.4766C75.135 17.6391 72.835 15.3416 70 15.3416ZM70 23.8099C68.1583 23.8099 66.6667 22.3182 66.6667 20.4766C66.6667 18.6349 68.1583 17.1432 70 17.1432C71.8417 17.1432 73.3333 18.6349 73.3333 20.4766C73.3333 22.3182 71.8417 23.8099 70 23.8099ZM76.5383 15.1391C76.5383 15.8016 76 16.3391 75.3383 16.3391C74.6758 16.3391 74.1383 15.8007 74.1383 15.1391C74.1383 14.4774 74.6767 13.9399 75.3383 13.9399C75.9992 13.9391 76.5383 14.4774 76.5383 15.1391Z" fill="#B31851"/>
<rect x="100" y="0.476562" width="40" height="40" rx="20" fill="white"/>
<path d="M120.015 10.4766C114.497 10.4766 110.025 14.9491 110.025 20.4657C110.025 24.6982 112.656 28.3132 116.373 29.7674C116.285 28.9766 116.207 27.7649 116.407 26.9016C116.59 26.1207 117.579 21.9374 117.579 21.9374C117.579 21.9374 117.28 21.3374 117.28 20.4532C117.28 19.0674 118.085 18.0274 119.086 18.0274C119.94 18.0274 120.351 18.6682 120.351 19.4341C120.351 20.2916 119.807 21.5732 119.525 22.7607C119.287 23.7549 120.025 24.5649 121.004 24.5649C122.777 24.5649 124.144 22.6941 124.144 19.9924C124.144 17.6082 122.425 15.9349 119.97 15.9349C117.129 15.9349 115.463 18.0699 115.463 20.2674C115.463 21.1282 115.791 22.0532 116.204 22.5516C116.286 22.6516 116.297 22.7391 116.275 22.8391C116.2 23.1516 116.03 23.8382 115.996 23.9749C115.952 24.1624 115.853 24.2007 115.662 24.1124C114.416 23.5374 113.635 21.7141 113.635 20.2407C113.635 17.0941 115.925 14.1974 120.235 14.1974C123.7 14.1974 126.395 16.6699 126.395 19.9666C126.395 23.4124 124.222 26.1849 121.2 26.1849C120.189 26.1849 119.239 25.6607 118.902 25.0357L118.278 27.4091C118.054 28.2799 117.441 29.3691 117.03 30.0307C117.965 30.3182 118.951 30.4766 119.988 30.4766C125.494 30.4766 129.975 26.0057 129.975 20.4874C129.975 14.9682 125.494 10.4982 119.988 10.4982L120.015 10.4766Z" fill="#B31851"/>
<rect x="150" y="0.476562" width="40" height="40" rx="20" fill="white"/>
<path d="M179.961 14.2849C179.212 14.6146 178.419 14.8322 177.607 14.9307C178.462 14.4168 179.102 13.6108 179.409 12.6616C178.617 13.1241 177.738 13.4607 176.803 13.6482C176.186 12.9886 175.369 12.5511 174.478 12.4036C173.587 12.2562 172.672 12.4071 171.876 12.8329C171.079 13.2587 170.446 13.9355 170.073 14.7583C169.701 15.5811 169.611 16.5039 169.817 17.3832C166.408 17.2224 163.389 15.5849 161.367 13.1116C160.999 13.7364 160.807 14.4491 160.812 15.1741C160.812 16.5991 161.537 17.8516 162.635 18.5874C161.984 18.5667 161.347 18.3907 160.778 18.0741V18.1241C160.778 19.071 161.105 19.989 161.705 20.7222C162.304 21.4554 163.139 21.9586 164.067 22.1466C163.465 22.3077 162.835 22.3319 162.223 22.2174C162.487 23.0324 162.998 23.7448 163.686 24.2553C164.374 24.7658 165.204 25.0488 166.06 25.0649C164.61 26.2032 162.819 26.821 160.975 26.8191C160.65 26.8191 160.326 26.7999 160 26.7632C161.88 27.9668 164.065 28.6057 166.298 28.6041C173.842 28.6041 177.962 22.3574 177.962 16.9499C177.962 16.7749 177.962 16.5999 177.95 16.4249C178.755 15.8456 179.449 15.1264 180 14.3016L179.961 14.2849Z" fill="#B31851"/>
<rect x="200" y="0.476562" width="40" height="40" rx="20" fill="white"/>
<path d="M229.582 15.6315C229.469 15.2059 229.246 14.8174 228.936 14.5051C228.625 14.1927 228.238 13.9673 227.813 13.8515C226.254 13.4307 220 13.4307 220 13.4307C220 13.4307 213.746 13.4307 212.186 13.8515C211.761 13.9675 211.374 14.1929 211.064 14.5053C210.754 14.8177 210.531 15.206 210.418 15.6315C210 17.2015 210 20.4765 210 20.4765C210 20.4765 210 23.7515 210.418 25.3215C210.531 25.7471 210.754 26.1356 211.064 26.4479C211.375 26.7603 211.762 26.9857 212.187 27.1015C213.746 27.5223 220 27.5223 220 27.5223C220 27.5223 226.254 27.5223 227.814 27.1015C228.239 26.9858 228.626 26.7604 228.936 26.448C229.247 26.1356 229.47 25.7471 229.583 25.3215C230 23.7515 230 20.4765 230 20.4765C230 20.4765 230 17.2015 229.582 15.6315ZM217.954 23.4498V17.5032L223.182 20.4765L217.954 23.4498Z" fill="#B31851"/>
</svg>
