<svg width="129" height="41" viewBox="0 0 129 41" fill="none" xmlns="http://www.w3.org/2000/svg">
<g clip-path="url(#clip0_1_46229)">
<path d="M51.5407 2.49149H52.9176V15.9243C52.9176 17.0437 52.4152 16.3907 52.3035 16.1669L43.8561 3.0885C41.6977 -0.139109 38.9067 2.54746 37.5298 0.476562L36.9158 0.625816L38.2368 2.67805C38.4415 2.99522 38.4787 3.16313 38.4787 3.70417V23.8348C38.4787 25.2154 39.3905 25.7191 40.1347 25.7191H40.5255V24.3758H40.2836C39.9859 24.3758 39.8184 24.1333 39.8184 23.8348V5.70044C39.8184 5.1594 39.9859 5.36462 40.0231 5.43925L53.1408 25.7191H54.2573V2.49149H55.69V1.24149H51.5593V2.49149H51.5407ZM18.737 1.24149H0V2.49149H8.22418C7.8897 2.6605 7.60838 2.91901 7.41134 3.23841C7.21431 3.55781 7.10924 3.92563 7.10777 4.30119V25.5885H9.61968C9.88385 25.5895 10.1456 25.5381 10.3899 25.4371C10.6341 25.3362 10.856 25.1879 11.0428 25.0006C11.2296 24.8133 11.3776 24.5907 11.4782 24.3458C11.5789 24.1009 11.6302 23.8385 11.6292 23.5736V3.62955C11.6292 2.86462 12.0944 2.47283 12.634 2.47283H18.737V1.24149ZM73.1617 24.2639H64.0444C64.3076 24.0788 64.5228 23.8331 64.6717 23.5475C64.8206 23.2618 64.899 22.9444 64.9003 22.6221V14.6743C64.9003 14.1893 65.1794 13.9467 65.5143 13.9467H71.7662V12.6967H65.5143C65.0864 12.6967 64.9003 12.3609 64.9003 11.9691V3.62955C64.9003 2.86462 65.3655 2.47283 65.9051 2.47283H74.9293V1.24149H59.3369V2.49149H61.4953C61.1608 2.6605 60.8795 2.91901 60.6824 3.23841C60.4854 3.55781 60.3803 3.92563 60.3789 4.30119V25.5885H73.2919C74.8921 25.5885 75.0038 24.5064 75.0038 23.6482H73.7013C73.7013 23.9281 73.7013 24.2639 73.1617 24.2639ZM34.5527 23.7602L27.6124 1.24149H26.1983L17.9369 25.5699H18.5695C19.3882 23.2004 22.756 25.1407 24.0585 21.484L28.2078 9.26388C28.2822 9.02134 28.5055 8.7788 28.766 9.58104V9.56239C30.7197 15.887 33.1944 23.9281 33.1944 23.9281C33.3619 24.4691 33.734 25.7191 35.1481 25.7191H35.5017V24.3758H35.1853C34.776 24.3758 34.6457 24.0773 34.5527 23.7602ZM128.554 24.3758C128.163 24.3758 128.033 24.0773 127.94 23.7602L121 1.24149H119.586L111.324 25.5699H111.957C112.775 23.2004 116.143 25.1407 117.446 21.484L121.595 9.26388C121.669 9.02134 121.893 8.7788 122.153 9.58104V9.56239C124.107 15.887 126.582 23.9281 126.582 23.9281C126.749 24.4691 127.121 25.7191 128.535 25.7191H128.889V24.3758H128.554ZM102.765 14.9355C104.371 14.4559 105.75 13.4129 106.652 11.9971C107.553 10.5814 107.917 8.88752 107.675 7.22534C107.433 5.56316 106.603 4.04375 105.336 2.94498C104.069 1.84621 102.449 1.24152 100.774 1.24149H90.4287V2.49149H92.7918C92.4573 2.6605 92.176 2.91901 91.979 3.23841C91.7819 3.55781 91.6769 3.92563 91.6754 4.30119V25.5885H94.1873C94.4515 25.5895 94.7132 25.5381 94.9575 25.4371C95.2017 25.3362 95.4237 25.1879 95.6105 25.0006C95.7973 24.8133 95.9452 24.5907 96.0459 24.3458C96.1465 24.1009 96.1978 23.8385 96.1968 23.5736V3.62955C96.1968 2.86462 96.662 2.47283 97.2016 2.47283H100.755C101.508 2.47283 102.253 2.62146 102.949 2.91024C103.644 3.19902 104.276 3.62228 104.808 4.15587C105.34 4.68947 105.762 5.32293 106.05 6.0201C106.338 6.71727 106.486 7.46449 106.486 8.2191C106.486 8.97371 106.338 9.72093 106.05 10.4181C105.762 11.1153 105.34 11.7487 104.808 12.2823C104.276 12.8159 103.644 13.2392 102.949 13.528C102.253 13.8167 101.508 13.9654 100.755 13.9654H97.1644V15.2154H97.8342C98.1133 15.2154 98.6529 15.3833 99.0809 16.1482L102.802 22.9206C104.514 25.943 107.1 23.6109 108.198 25.5512H108.831L103.212 15.3273C103.102 15.1576 102.947 15.0219 102.765 14.9355ZM78.6321 2.49149H80.9951C80.6607 2.6605 80.3793 2.91901 80.1823 3.23841C79.9853 3.55781 79.8802 3.92563 79.8787 4.30119V24.2825H78.6321V25.5885H85.6654V24.2825H83.5629C83.8261 24.0975 84.0412 23.8518 84.1902 23.5661C84.3391 23.2804 84.4175 22.9631 84.4188 22.6407V3.62955C84.4188 2.86462 84.8839 2.47283 85.4235 2.47283H86.1492V1.24149H78.6321V2.49149Z" fill="#B31851"/>
<path fill-rule="evenodd" clip-rule="evenodd" d="M31.4419 40.3096V35.5522H29.5627V33.5186H35.9448V35.5895H34.2143V40.3096H31.4419ZM45.2481 40.3096V35.5895H43.4061V33.5186H49.8254V35.6268H48.0391V40.3096H45.2481ZM35.6471 40.3096L38.1776 33.5186H41.1546L43.648 40.3096H40.9686L39.6661 36.3917L38.3636 40.3096H35.6471ZM49.4533 40.3096L51.9838 33.5186H54.9236L57.4169 40.3096H54.7748L53.4723 36.3917L52.0954 40.3096H49.4533ZM22.4735 34.638L21.3199 37.7164H23.5527L22.4735 34.638ZM21.692 33.4813H23.3108L25.953 40.3283H24.5016L23.9434 38.7052H20.9663L20.3709 40.3283H19.0312L21.692 33.4813ZM104.697 33.4999H109.646V34.5447H107.823V40.3096H106.483V34.5447H104.697V33.4999ZM103.524 33.7238L103.431 34.8059C103.413 34.7873 103.376 34.7873 103.338 34.7686C102.872 34.5663 102.375 34.4463 101.868 34.4141C101.124 34.4141 100.529 34.638 100.082 35.1044C99.8545 35.3527 99.6781 35.6438 99.5631 35.9608C99.4481 36.2778 99.3969 36.6145 99.4123 36.9514C99.3974 37.2787 99.4509 37.6054 99.5695 37.9107C99.688 38.2159 99.869 38.4929 100.101 38.7238C100.345 38.952 100.632 39.1289 100.945 39.2443C101.258 39.3596 101.591 39.411 101.924 39.3955C102.313 39.3639 102.695 39.2759 103.059 39.1343C103.245 39.0783 103.376 39.041 103.469 39.0037L103.58 40.0858C103.487 40.1044 103.376 40.1417 103.208 40.179C102.755 40.3216 102.286 40.4093 101.813 40.4402C100.64 40.4402 99.71 40.1231 99.0402 39.4887C98.3703 38.8544 98.0168 37.9962 98.0168 36.9328C98.0168 35.8693 98.3517 34.9925 99.0402 34.3208C99.7286 33.6492 100.622 33.332 101.738 33.332C102.219 33.358 102.694 33.4457 103.152 33.5932C103.32 33.6679 103.45 33.6865 103.524 33.7238ZM90.6486 33.4999H91.9882V37.4925C91.9882 38.1455 92.0999 38.6305 92.3232 38.9477C92.5464 39.2649 92.9 39.4141 93.3651 39.4141C93.5725 39.4259 93.7795 39.386 93.9678 39.2981C94.1561 39.2103 94.3198 39.077 94.4443 38.9104C94.6862 38.5746 94.8165 38.0895 94.8165 37.4365V33.4999H96.0817V37.4552C96.0817 38.444 95.8584 39.2089 95.4119 39.694C94.9653 40.179 94.2769 40.4402 93.3651 40.4402C92.4534 40.4402 91.8022 40.1977 91.3556 39.694C90.909 39.1902 90.6672 38.4626 90.6672 37.4925V33.4999H90.6486ZM82.9268 33.4999H84.8619C85.3604 33.4935 85.8584 33.531 86.3504 33.6119C86.7064 33.6694 87.0477 33.7961 87.3552 33.985C87.8216 34.2768 88.2008 34.6893 88.453 35.179C88.6982 35.7179 88.8251 36.3032 88.8251 36.8955C88.8251 37.4877 88.6982 38.0731 88.453 38.6119C88.199 39.1064 87.8124 39.52 87.3366 39.8059C87.0208 40.009 86.6656 40.1425 86.2946 40.1977C85.7907 40.2856 85.2802 40.3293 84.7688 40.3283H82.9268V33.4999ZM84.2664 34.5074V39.2649H85.0479C85.7922 39.2649 86.3876 39.0596 86.797 38.6305C87.2063 38.2014 87.4296 37.6231 87.4296 36.8768C87.4296 36.1305 87.2249 35.5335 86.797 35.1231C86.369 34.7126 85.7736 34.5074 84.9921 34.5074H84.2664ZM77.7541 33.3507C78.7589 33.3507 79.5403 33.6679 80.1171 34.3022C80.694 34.9365 80.9731 35.7947 80.9731 36.9141C80.9731 38.0335 80.694 38.8917 80.1171 39.5261C79.5403 40.1604 78.7589 40.4776 77.7541 40.4776C76.7493 40.4776 75.9678 40.1604 75.391 39.5261C74.8142 38.8917 74.5351 38.0335 74.5351 36.9141C74.5351 35.7947 74.8142 34.9365 75.391 34.3022C75.9678 33.6679 76.7493 33.3507 77.7541 33.3507ZM77.7541 34.3582C77.4909 34.3507 77.2301 34.4101 76.9958 34.5308C76.7616 34.6515 76.5616 34.8295 76.4144 35.0484C76.0795 35.5149 75.912 36.1119 75.912 36.8768C75.912 37.6417 76.0795 38.2574 76.4144 38.7238C76.567 38.9372 76.7681 39.1111 77.0011 39.231C77.2341 39.3509 77.4922 39.4135 77.7541 39.4135C78.016 39.4135 78.2741 39.3509 78.5071 39.231C78.74 39.1111 78.9412 38.9372 79.0938 38.7238C79.4583 38.1791 79.6407 37.5323 79.6148 36.8768C79.6148 36.1119 79.4473 35.4962 79.0938 35.0484C78.9437 34.8324 78.7431 34.6566 78.5095 34.5362C78.276 34.4159 78.0166 34.3548 77.7541 34.3582ZM68.1344 33.4999H70.3672C71.2045 33.4999 71.8185 33.6492 72.2279 33.929C72.4312 34.0777 72.5939 34.2752 72.7012 34.5034C72.8085 34.7316 72.8569 34.9832 72.8419 35.235C72.8564 35.6296 72.7237 36.0153 72.4698 36.3171C72.1911 36.6239 71.8175 36.8276 71.4092 36.8955C71.5843 36.9503 71.7437 37.0462 71.8744 37.1753C72.0407 37.4034 72.1723 37.6548 72.2651 37.9216L73.214 40.291H71.7999L71.0371 38.2387C70.9681 37.9908 70.8172 37.7738 70.6091 37.6231C70.3757 37.496 70.1112 37.4378 69.8462 37.4552H69.4183V40.3096H68.1344V33.4999ZM69.4555 34.4514V36.5037H70.1439C70.4975 36.5209 70.848 36.4298 71.1487 36.2425C71.2676 36.1556 71.3625 36.0398 71.4244 35.906C71.4862 35.7721 71.513 35.6247 71.5022 35.4776C71.515 35.3275 71.4892 35.1767 71.4274 35.0395C71.3655 34.9024 71.2695 34.7834 71.1487 34.694C70.9068 34.5261 70.5533 34.4514 70.0323 34.4514H69.4555ZM61.8267 33.4999H63.8549C64.7294 33.4999 65.3806 33.6679 65.8086 34.0223C66.2365 34.3768 66.4412 34.8992 66.4412 35.6268C66.4569 35.9193 66.4045 36.2115 66.2883 36.4802C66.172 36.7489 65.995 36.9869 65.7714 37.1753C65.3248 37.5485 64.6922 37.735 63.8921 37.735H63.1664V40.3283H61.8267V33.4999ZM63.1664 34.4514V36.7462H63.706C64.1526 36.7462 64.4875 36.6529 64.7108 36.4477C64.8311 36.3453 64.9258 36.2159 64.9872 36.0701C65.0486 35.9243 65.075 35.7661 65.0643 35.6082C65.0739 35.4493 65.0489 35.2903 64.9911 35.1421C64.9332 34.9939 64.8439 34.8601 64.7294 34.7499C64.4624 34.5331 64.1231 34.4263 63.7804 34.4514H63.1664Z" fill="#B31851"/>
</g>
<defs>
<clipPath id="clip0_1_46229">
<rect y="0.476562" width="128.889" height="40" fill="white"/>
</clipPath>
</defs>
</svg>
