<svg width="70" height="69" viewBox="0 0 70 69" fill="none" xmlns="http://www.w3.org/2000/svg">
<g filter="url(#filter0_bd_399_46968)">
<circle cx="33" cy="30" r="26" fill="#FAEEE6" shape-rendering="crispEdges"/>
<circle cx="33" cy="30" r="26" stroke="url(#paint0_linear_399_46968)" stroke-width="1.52941" shape-rendering="crispEdges"/>
</g>
<path d="M47.224 40.3639C47.6293 40.3639 47.9579 40.0327 47.9579 39.6242C47.9579 39.2157 47.6293 38.8845 47.224 38.8845C46.8186 38.8845 46.49 39.2157 46.49 39.6242C46.49 40.0327 46.8186 40.3639 47.224 40.3639Z" fill="#B78053"/>
<path d="M29.295 32.119C29.5872 31.794 29.3735 31.2739 28.9388 31.2529C25.6092 31.0921 22.1367 30.9243 18.5311 30.7502C18.2565 30.737 18.0388 30.5086 18.0388 30.2316C18.0388 29.9546 18.2529 29.7266 18.5275 29.7133C21.8486 29.5519 25.6646 29.3444 28.9291 29.1567C29.3614 29.1319 29.5715 28.6139 29.2807 28.2906C27.0344 25.7931 24.6859 23.1819 22.2302 20.4516C22.0653 20.2682 22.0506 19.9918 22.1967 19.7929L22.2012 19.7868C22.3823 19.5402 22.7363 19.506 22.9621 19.7118C25.697 22.2046 28.2461 24.5281 30.8177 26.872C31.151 27.1758 31.6843 26.9338 31.6784 26.481C31.6695 25.7887 31.6635 25.1089 31.6984 24.4312C31.8257 21.965 31.8678 18.5326 32.0425 15.9542C32.061 15.6814 32.2854 15.4705 32.5567 15.4705H32.6116C32.8862 15.4705 33.1126 15.6893 33.1262 15.9657C33.3034 19.576 33.4751 23.0753 33.6423 26.4825C33.6638 26.9205 34.18 27.1352 34.5021 26.8403C36.9993 24.5536 39.5868 22.1842 42.2379 19.7566C42.4385 19.5728 42.747 19.5765 42.9423 19.7659L42.9541 19.7773C43.1542 19.9714 43.1644 20.2919 42.9785 20.5C40.5682 23.1993 38.2685 25.7746 35.9553 28.3651C35.6552 28.7012 35.8953 29.2372 36.3439 29.2315C37.1025 29.2217 37.852 29.2138 38.5993 29.2515C40.9655 29.371 44.2677 29.5206 46.7456 29.7009C47.0152 29.7205 47.2229 29.9464 47.2229 30.2188V30.2269C47.2229 30.5041 47.0052 30.7325 46.7304 30.7455C43.126 30.9151 39.6479 31.0788 36.3338 31.2348C35.8986 31.2553 35.6834 31.7758 35.9762 32.1009C38.2196 34.5922 40.5586 37.1897 42.9891 39.8887C43.1782 40.0987 43.1663 40.4242 42.9609 40.618L42.9391 40.6385C42.7432 40.8232 42.4395 40.8256 42.2409 40.6438L34.2867 33.3662C33.955 33.0627 33.4234 33.3024 33.4251 33.7539C33.4322 35.6311 33.4494 37.4238 33.4112 39.2153C33.3805 40.6516 33.2743 42.0868 33.1726 43.521C33.1534 43.7927 32.9292 44.0032 32.6589 44.0032H32.6582C32.3871 44.0032 32.1626 43.7934 32.1443 43.5209C31.9812 41.0809 31.8112 38.4983 31.6788 36.0769C31.6402 35.3695 31.6466 34.6597 31.6563 33.9602C31.6627 33.5064 31.1288 33.2641 30.7952 33.5689C28.2398 35.904 25.6934 38.2309 23.0465 40.6496C22.8461 40.8328 22.5378 40.8296 22.3425 40.6408L22.3243 40.6232C22.1232 40.4287 22.1131 40.1072 22.3002 39.8991C22.3002 39.8991 23.9351 38.0807 25.7366 36.0769" stroke="#B78053" stroke-width="1.14706" stroke-linecap="round" stroke-linejoin="round"/>
<path d="M44.318 29.4475C44.318 26.9437 43.546 24.9112 42.2244 23.0027" stroke="#B78053" stroke-width="1.14706" stroke-linecap="round" stroke-linejoin="round"/>
<path d="M21.287 28.7521C21.287 26.2484 22.059 24.2159 23.3806 22.3074" stroke="#B78053" stroke-width="1.14706" stroke-linecap="round" stroke-linejoin="round"/>
<path d="M40.2757 21.3355C38.5189 19.5651 36.5468 18.678 34.2732 18.2703" stroke="#B78053" stroke-width="1.14706" stroke-linecap="round" stroke-linejoin="round"/>
<path d="M31.8715 18.4554C29.387 18.4554 27.3701 19.2333 25.4763 20.5652" stroke="#B78053" stroke-width="1.14706" stroke-linecap="round" stroke-linejoin="round"/>
<path d="M21.287 30.8748C21.287 33.3786 22.059 35.4111 23.3806 37.3196" stroke="#B78053" stroke-width="1.14706" stroke-linecap="round" stroke-linejoin="round"/>
<path d="M43.9078 31.9339C43.9078 34.4377 43.1358 36.4702 41.8142 38.3787" stroke="#B78053" stroke-width="1.14706" stroke-linecap="round" stroke-linejoin="round"/>
<path d="M25.0129 39.0976C26.7697 40.868 28.7418 41.7551 31.0154 42.1628" stroke="#B78053" stroke-width="1.14706" stroke-linecap="round" stroke-linejoin="round"/>
<path d="M33.5909 42.1633C36.0754 42.1633 38.0923 41.3853 39.9861 40.0535" stroke="#B78053" stroke-width="1.14706" stroke-linecap="round" stroke-linejoin="round"/>
<defs>
<filter id="filter0_bd_399_46968" x="-22.0588" y="-25.0588" width="110.118" height="110.118" filterUnits="userSpaceOnUse" color-interpolation-filters="sRGB">
<feFlood flood-opacity="0" result="BackgroundImageFix"/>
<feGaussianBlur in="BackgroundImageFix" stdDeviation="14.1471"/>
<feComposite in2="SourceAlpha" operator="in" result="effect1_backgroundBlur_399_46968"/>
<feColorMatrix in="SourceAlpha" type="matrix" values="0 0 0 0 0 0 0 0 0 0 0 0 0 0 0 0 0 0 127 0" result="hardAlpha"/>
<feOffset dx="2.29412" dy="4.58824"/>
<feGaussianBlur stdDeviation="3.82353"/>
<feComposite in2="hardAlpha" operator="out"/>
<feColorMatrix type="matrix" values="0 0 0 0 0 0 0 0 0 0 0 0 0 0 0 0 0 0 0.15 0"/>
<feBlend mode="normal" in2="effect1_backgroundBlur_399_46968" result="effect2_dropShadow_399_46968"/>
<feBlend mode="normal" in="SourceGraphic" in2="effect2_dropShadow_399_46968" result="shape"/>
</filter>
<linearGradient id="paint0_linear_399_46968" x1="60.7751" y1="30" x2="5.32932" y2="30" gradientUnits="userSpaceOnUse">
<stop stop-color="#FFDB7D"/>
<stop offset="0.46875" stop-color="#FFDB7D" stop-opacity="0.13"/>
<stop offset="1" stop-color="#FFDB7D"/>
</linearGradient>
</defs>
</svg>
