<svg width="27" height="26" viewBox="0 0 27 26" fill="none" xmlns="http://www.w3.org/2000/svg">
<path d="M26.0351 21.7713C26.3781 21.7713 26.6562 21.4911 26.6562 21.1454C26.6562 20.7997 26.3781 20.5195 26.0351 20.5195C25.6921 20.5195 25.4141 20.7997 25.4141 21.1454C25.4141 21.4911 25.6921 21.7713 26.0351 21.7713Z" fill="#B78053"/>
<path d="M10.8643 14.7943C11.1116 14.5193 10.9307 14.0791 10.5629 14.0614C7.74551 13.9253 4.80728 13.7834 1.75637 13.6361C1.52402 13.6248 1.33985 13.4317 1.33985 13.1972C1.33985 12.9628 1.52101 12.7699 1.75333 12.7586C4.56348 12.6221 7.79239 12.4465 10.5547 12.2877C10.9205 12.2667 11.0983 11.8284 10.8522 11.5549C8.95147 9.44154 6.96427 7.23208 4.8864 4.92181C4.74686 4.76666 4.73447 4.53279 4.85808 4.36448L4.86186 4.35933C5.01511 4.15067 5.31464 4.12175 5.50569 4.29589C7.81981 6.40516 9.97676 8.37118 12.1527 10.3545C12.4347 10.6116 12.886 10.4068 12.8811 10.0236C12.8735 9.43787 12.8684 8.86263 12.898 8.28922C13.0056 6.20241 13.0413 3.29811 13.1891 1.11638C13.2047 0.885558 13.3946 0.707031 13.6242 0.707031H13.6707C13.903 0.707031 14.0946 0.892237 14.1061 1.12611C14.256 4.18098 14.4013 7.14193 14.5428 10.0249C14.561 10.3955 14.9978 10.5772 15.2703 10.3277C17.3833 8.39277 19.5728 6.38787 21.816 4.33373C21.9858 4.17827 22.2468 4.18136 22.4121 4.34166L22.422 4.35127C22.5913 4.51552 22.5999 4.7867 22.4427 4.96278C20.4031 7.24679 18.4573 9.42593 16.5 11.6178C16.246 11.9022 16.4492 12.3558 16.8288 12.351C17.4706 12.3427 18.1049 12.336 18.7372 12.3679C20.7394 12.469 23.5335 12.5956 25.6302 12.7482C25.8583 12.7648 26.0341 12.9559 26.0341 13.1864V13.1932C26.0341 13.4278 25.8499 13.6211 25.6173 13.632C22.5675 13.7756 19.6244 13.9141 16.8202 14.0461C16.4519 14.0634 16.2699 14.5039 16.5176 14.779C18.4159 16.887 20.395 19.0848 22.4516 21.3686C22.6116 21.5463 22.6016 21.8217 22.4277 21.9857L22.4093 22.0031C22.2436 22.1594 21.9865 22.1614 21.8185 22.0076L15.088 15.8496C14.8074 15.5928 14.3576 15.7956 14.359 16.1776C14.365 17.766 14.3796 19.2829 14.3472 20.7989C14.3213 22.0142 14.2314 23.2285 14.1454 24.4421C14.1291 24.672 13.9394 24.8501 13.7107 24.8501H13.7101C13.4807 24.8501 13.2907 24.6726 13.2753 24.442C13.1372 22.3774 12.9934 20.1921 12.8814 18.1432C12.8487 17.5447 12.8541 16.9441 12.8624 16.3522C12.8677 15.9682 12.416 15.7632 12.1337 16.0211C9.97144 17.997 7.8168 19.9659 5.57714 22.0124C5.4075 22.1675 5.14664 22.1648 4.98143 22.005L4.96604 21.9901C4.79588 21.8255 4.78727 21.5535 4.94563 21.3774C4.94563 21.3774 6.32898 19.8387 7.85336 18.1432" stroke="#B78053" stroke-width="0.970588" stroke-linecap="round" stroke-linejoin="round"/>
<path d="M23.5762 12.5333C23.5762 10.4148 22.923 8.69495 21.8047 7.08008" stroke="#B78053" stroke-width="0.970588" stroke-linecap="round" stroke-linejoin="round"/>
<path d="M4.08983 11.9455C4.08983 9.82688 4.74306 8.10706 5.86133 6.49219" stroke="#B78053" stroke-width="0.970588" stroke-linecap="round" stroke-linejoin="round"/>
<path d="M20.1552 5.66986C18.6687 4.1718 17 3.42119 15.0762 3.07617" stroke="#B78053" stroke-width="0.970588" stroke-linecap="round" stroke-linejoin="round"/>
<path d="M13.0441 3.23234C10.9418 3.23234 9.23526 3.89063 7.63281 5.01758" stroke="#B78053" stroke-width="0.970588" stroke-linecap="round" stroke-linejoin="round"/>
<path d="M4.08983 13.742C4.08983 15.8606 4.74306 17.5804 5.86133 19.1953" stroke="#B78053" stroke-width="0.970588" stroke-linecap="round" stroke-linejoin="round"/>
<path d="M23.2285 14.6385C23.2285 16.7571 22.5753 18.4769 21.457 20.0918" stroke="#B78053" stroke-width="0.970588" stroke-linecap="round" stroke-linejoin="round"/>
<path d="M7.2413 20.6993C8.72783 22.1973 10.3965 22.948 12.3203 23.293" stroke="#B78053" stroke-width="0.970588" stroke-linecap="round" stroke-linejoin="round"/>
<path d="M14.4989 23.2931C16.6011 23.2931 18.3077 22.6348 19.9102 21.5078" stroke="#B78053" stroke-width="0.970588" stroke-linecap="round" stroke-linejoin="round"/>
</svg>
