<svg width="20" height="21" viewBox="0 0 20 21" fill="none" xmlns="http://www.w3.org/2000/svg">
<path d="M17.3084 16.7514C17.3084 17.0514 17.2417 17.3597 17.1 17.6597C16.9584 17.9597 16.775 18.2431 16.5334 18.5097C16.125 18.9597 15.675 19.2847 15.1667 19.4931C14.6667 19.7014 14.125 19.8097 13.5417 19.8097C12.6917 19.8097 11.7834 19.6097 10.825 19.2014C9.86669 18.7931 8.90835 18.2431 7.95835 17.5514C7.00002 16.8514 6.09169 16.0764 5.22502 15.2181C4.36669 14.3514 3.59169 13.4431 2.90002 12.4931C2.21669 11.5431 1.66669 10.5931 1.26669 9.6514C0.866687 8.7014 0.666687 7.79307 0.666687 6.9264C0.666687 6.35973 0.766687 5.81807 0.966687 5.31807C1.16669 4.80973 1.48335 4.34307 1.92502 3.9264C2.45835 3.4014 3.04169 3.14307 3.65835 3.14307C3.89169 3.14307 4.12502 3.19307 4.33335 3.29307C4.55002 3.39307 4.74169 3.54307 4.89169 3.75973L6.82502 6.48473C6.97502 6.69307 7.08335 6.88473 7.15835 7.06807C7.23335 7.24307 7.27502 7.41807 7.27502 7.5764C7.27502 7.7764 7.21669 7.9764 7.10002 8.16807C6.99169 8.35973 6.83335 8.55973 6.63335 8.75973L6.00002 9.41807C5.90835 9.50973 5.86669 9.61807 5.86669 9.7514C5.86669 9.81807 5.87502 9.8764 5.89169 9.94307C5.91669 10.0097 5.94169 10.0597 5.95835 10.1097C6.10835 10.3847 6.36669 10.7431 6.73335 11.1764C7.10835 11.6097 7.50835 12.0514 7.94169 12.4931C8.39169 12.9347 8.82502 13.3431 9.26669 13.7181C9.70002 14.0847 10.0584 14.3347 10.3417 14.4847C10.3834 14.5014 10.4334 14.5264 10.4917 14.5514C10.5584 14.5764 10.625 14.5847 10.7 14.5847C10.8417 14.5847 10.95 14.5347 11.0417 14.4431L11.675 13.8181C11.8834 13.6097 12.0834 13.4514 12.275 13.3514C12.4667 13.2347 12.6584 13.1764 12.8667 13.1764C13.025 13.1764 13.1917 13.2097 13.375 13.2847C13.5584 13.3597 13.75 13.4681 13.9584 13.6097L16.7167 15.5681C16.9334 15.7181 17.0834 15.8931 17.175 16.1014C17.2584 16.3097 17.3084 16.5181 17.3084 16.7514Z" stroke="#B31851" stroke-width="1.2" stroke-miterlimit="10"/>
<path d="M14.4167 8.97624C14.4167 8.47624 14.0251 7.70957 13.4417 7.08457C12.9084 6.50957 12.2001 6.05957 11.5001 6.05957" stroke="#B31851" stroke-width="1.2" stroke-linecap="round" stroke-linejoin="round"/>
<path d="M17.3334 8.9764C17.3334 5.7514 14.7251 3.14307 11.5001 3.14307" stroke="#B31851" stroke-width="1.2" stroke-linecap="round" stroke-linejoin="round"/>
</svg>
