<svg width="20" height="21" viewBox="0 0 20 21" fill="none" xmlns="http://www.w3.org/2000/svg">
<path d="M17.3087 16.7509C17.3087 17.0509 17.242 17.3592 17.1003 17.6592C16.9587 17.9592 16.7753 18.2426 16.5337 18.5092C16.1253 18.9592 15.6753 19.2842 15.167 19.4926C14.667 19.7009 14.1253 19.8092 13.542 19.8092C12.692 19.8092 11.7837 19.6092 10.8253 19.2009C9.86699 18.7926 8.90866 18.2426 7.95866 17.5509C7.00033 16.8509 6.09199 16.0759 5.22533 15.2176C4.36699 14.3509 3.59199 13.4426 2.90033 12.4926C2.21699 11.5426 1.66699 10.5926 1.26699 9.65091C0.866992 8.70091 0.666992 7.79258 0.666992 6.92591C0.666992 6.35924 0.766992 5.81758 0.966992 5.31758C1.16699 4.80924 1.48366 4.34258 1.92533 3.92591C2.45866 3.40091 3.04199 3.14258 3.65866 3.14258C3.89199 3.14258 4.12533 3.19258 4.33366 3.29258C4.55033 3.39258 4.74199 3.54258 4.89199 3.75924L6.82533 6.48425C6.97533 6.69258 7.08366 6.88425 7.15866 7.06758C7.23366 7.24258 7.27533 7.41758 7.27533 7.57591C7.27533 7.77591 7.21699 7.97591 7.10033 8.16758C6.99199 8.35924 6.83366 8.55924 6.63366 8.75924L6.00033 9.41758C5.90866 9.50924 5.86699 9.61758 5.86699 9.75091C5.86699 9.81758 5.87533 9.87591 5.89199 9.94258C5.91699 10.0092 5.94199 10.0592 5.95866 10.1092C6.10866 10.3842 6.36699 10.7426 6.73366 11.1759C7.10866 11.6092 7.50866 12.0509 7.94199 12.4926C8.39199 12.9342 8.82533 13.3426 9.26699 13.7176C9.70033 14.0842 10.0587 14.3342 10.342 14.4842C10.3837 14.5009 10.4337 14.5259 10.492 14.5509C10.5587 14.5759 10.6253 14.5842 10.7003 14.5842C10.842 14.5842 10.9503 14.5342 11.042 14.4426L11.6753 13.8176C11.8837 13.6092 12.0837 13.4509 12.2753 13.3509C12.467 13.2342 12.6587 13.1759 12.867 13.1759C13.0253 13.1759 13.192 13.2092 13.3753 13.2842C13.5587 13.3592 13.7503 13.4676 13.9587 13.6092L16.717 15.5676C16.9337 15.7176 17.0837 15.8926 17.1753 16.1009C17.2587 16.3092 17.3087 16.5176 17.3087 16.7509Z" stroke="#B31851" stroke-width="1.2" stroke-miterlimit="10"/>
<path d="M14.4167 8.97526C14.4167 8.47526 14.025 7.70859 13.4417 7.08359C12.9083 6.50859 12.2 6.05859 11.5 6.05859" stroke="#B31851" stroke-width="1.2" stroke-linecap="round" stroke-linejoin="round"/>
<path d="M17.3333 8.97591C17.3333 5.75091 14.725 3.14258 11.5 3.14258" stroke="#B31851" stroke-width="1.2" stroke-linecap="round" stroke-linejoin="round"/>
</svg>
