<svg width="20" height="21" viewBox="0 0 20 21" fill="none" xmlns="http://www.w3.org/2000/svg">
<path d="M17.3083 16.7514C17.3083 17.0514 17.2416 17.3597 17.1 17.6597C16.9583 17.9597 16.775 18.2431 16.5333 18.5097C16.125 18.9597 15.675 19.2847 15.1666 19.4931C14.6666 19.7014 14.125 19.8097 13.5416 19.8097C12.6916 19.8097 11.7833 19.6097 10.825 19.2014C9.86663 18.7931 8.90829 18.2431 7.95829 17.5514C6.99996 16.8514 6.09163 16.0764 5.22496 15.2181C4.36663 14.3514 3.59163 13.4431 2.89996 12.4931C2.21663 11.5431 1.66663 10.5931 1.26663 9.6514C0.866626 8.7014 0.666626 7.79307 0.666626 6.9264C0.666626 6.35973 0.766626 5.81807 0.966626 5.31807C1.16663 4.80973 1.48329 4.34307 1.92496 3.9264C2.45829 3.4014 3.04163 3.14307 3.65829 3.14307C3.89163 3.14307 4.12496 3.19307 4.33329 3.29307C4.54996 3.39307 4.74163 3.54307 4.89163 3.75973L6.82496 6.48473C6.97496 6.69307 7.08329 6.88473 7.15829 7.06807C7.23329 7.24307 7.27496 7.41807 7.27496 7.5764C7.27496 7.7764 7.21663 7.9764 7.09996 8.16807C6.99163 8.35973 6.83329 8.55973 6.63329 8.75973L5.99996 9.41807C5.90829 9.50973 5.86663 9.61807 5.86663 9.7514C5.86663 9.81807 5.87496 9.8764 5.89163 9.94307C5.91663 10.0097 5.94163 10.0597 5.95829 10.1097C6.10829 10.3847 6.36663 10.7431 6.73329 11.1764C7.10829 11.6097 7.50829 12.0514 7.94163 12.4931C8.39163 12.9347 8.82496 13.3431 9.26663 13.7181C9.69996 14.0847 10.0583 14.3347 10.3416 14.4847C10.3833 14.5014 10.4333 14.5264 10.4916 14.5514C10.5583 14.5764 10.625 14.5847 10.7 14.5847C10.8416 14.5847 10.95 14.5347 11.0416 14.4431L11.675 13.8181C11.8833 13.6097 12.0833 13.4514 12.275 13.3514C12.4666 13.2347 12.6583 13.1764 12.8666 13.1764C13.025 13.1764 13.1916 13.2097 13.375 13.2847C13.5583 13.3597 13.75 13.4681 13.9583 13.6097L16.7166 15.5681C16.9333 15.7181 17.0833 15.8931 17.175 16.1014C17.2583 16.3097 17.3083 16.5181 17.3083 16.7514Z" stroke="#B31851" stroke-width="1.2" stroke-miterlimit="10"/>
<path d="M14.4167 8.97624C14.4167 8.47624 14.025 7.70957 13.4417 7.08457C12.9083 6.50957 12.2 6.05957 11.5 6.05957" stroke="#B31851" stroke-width="1.2" stroke-linecap="round" stroke-linejoin="round"/>
<path d="M17.3333 8.9764C17.3333 5.7514 14.725 3.14307 11.5 3.14307" stroke="#B31851" stroke-width="1.2" stroke-linecap="round" stroke-linejoin="round"/>
</svg>
