<svg width="61" height="50" viewBox="0 0 61 50" fill="none" xmlns="http://www.w3.org/2000/svg">
<path fill-rule="evenodd" clip-rule="evenodd" d="M24.4983 0L23.9078 0.125316C23.9078 0.239243 23.9055 0.367632 23.7494 0.66759C23.5846 0.984165 23.2549 1.47789 22.5933 2.30813C21.8962 3.18306 21.5107 3.98447 21.3183 4.57238C20.7919 3.88107 19.9876 3.17274 18.7306 2.77518L18.383 3.22523C18.5732 3.463 18.6392 3.88484 18.5373 4.41861C18.4379 4.93957 18.1887 5.50585 17.8423 5.97343C17.3418 6.64918 17.0626 7.43715 16.9371 7.94223C16.8044 7.87852 16.669 7.81819 16.531 7.76161L16.1339 8.16695C16.9986 9.65867 17.2594 10.97 17.2831 12.1524C17.0697 11.9431 16.8283 11.7542 16.5855 11.5893C16.069 11.2385 15.5102 10.9717 15.1048 10.8269C15.0087 10.7926 14.9186 10.7625 14.8315 10.7334C14.5494 10.639 14.2983 10.555 13.9759 10.3738C13.5568 10.1381 13.0173 9.73438 12.2122 8.92965L11.6755 9.13741C11.6929 9.67264 11.6236 10.2529 11.5231 11.0785L11.5201 11.1028C11.4738 11.4832 11.4216 11.9112 11.37 12.4035C10.5491 13.0903 10.1174 14.1026 9.90251 15.0662C9.70755 15.9407 9.68359 16.8086 9.72845 17.4332C8.52031 17.3538 7.69016 17.2047 7.09412 17.016C6.2842 16.7597 5.90024 16.4287 5.57703 16.0732L5.06313 16.3918C5.2787 16.796 5.51105 17.2704 5.76518 17.7893C6.32068 18.9237 6.98022 20.2704 7.7959 21.5594C8.79473 23.1377 10.0556 24.6802 11.7146 25.7271C10.5965 25.7831 9.07266 26.0992 7.32238 26.9727C6.05344 27.6059 4.97226 28.2092 4.03817 28.7303C3.65796 28.9424 3.30171 29.1412 2.96751 29.3226C1.79647 29.9582 0.906282 30.3745 0.114823 30.4948L0 31.0286C0.385077 31.2541 0.846029 31.5931 1.39542 31.9971C1.47997 32.0593 1.56673 32.1231 1.65552 32.1882C2.31338 32.6704 3.07326 33.2154 3.92203 33.7191C5.61794 34.7255 7.69511 35.5831 10.0761 35.4479C11.8337 35.348 13.6696 34.9848 15.4883 34.2822C15.6092 35.2164 15.7038 36.5273 15.6484 37.8347C15.5834 39.3662 15.3141 40.8284 14.6971 41.6954L15.0242 42.1405C15.3248 42.0764 15.6461 41.998 15.9834 41.9047L15.9841 41.907C16.0308 41.8939 16.0794 41.8794 16.1297 41.8636C17.5149 41.4683 19.1519 40.8277 20.7275 39.91C22.7474 38.7337 24.6847 37.0911 25.8495 34.9079C26.7721 33.1787 27.3258 32.0488 27.7027 31.2507C27.702 31.2947 27.7017 31.3391 27.7017 31.384V31.3985L27.7032 31.4129C27.8325 32.6244 28.0694 33.2088 28.3006 33.777C28.4654 34.1819 28.6225 34.5683 28.7413 35.192C28.8611 35.8206 28.9432 36.6978 28.9432 38.0741V48.5456C28.9432 49.3488 29.6381 50 30.4951 50C31.3522 50 32.0471 49.3488 32.0471 48.5456V38.0741C32.0471 36.6978 32.1292 35.8206 32.249 35.192C32.3678 34.5683 32.5249 34.1819 32.6897 33.777C32.9209 33.2088 33.1578 32.6244 33.2871 31.4129L33.2886 31.3985V31.384C33.2886 31.3318 33.2881 31.2803 33.2872 31.2294C33.6643 32.0287 34.2197 33.1632 35.1505 34.9079C36.3153 37.0911 38.2526 38.7337 40.2725 39.91C41.8481 40.8277 43.4851 41.4683 44.8703 41.8636C44.9206 41.8794 44.9692 41.8939 45.0159 41.907L45.0166 41.9047C45.3539 41.998 45.6752 42.0764 45.9758 42.1405L46.3029 41.6954C45.6859 40.8284 45.4166 39.3662 45.3516 37.8347C45.2962 36.5273 45.3908 35.2164 45.5117 34.2822C47.3304 34.9848 49.1663 35.348 50.9239 35.4479C53.3049 35.5831 55.3821 34.7255 57.078 33.7191C57.9267 33.2154 58.6866 32.6704 59.3445 32.1882L59.6036 31.9978L59.6045 31.9972C60.1538 31.5932 60.6149 31.2541 61 31.0286L60.8852 30.4948C60.0937 30.3745 59.2035 29.9582 58.0325 29.3226C57.6983 29.1412 57.3424 28.9426 56.9622 28.7305C56.0282 28.2094 54.9466 27.6059 53.6776 26.9727C51.9273 26.0992 50.4035 25.7831 49.2854 25.7271C50.9444 24.6802 52.2053 23.1377 53.2041 21.5594C54.0198 20.2705 54.6793 18.9237 55.2348 17.7894C55.4889 17.2705 55.7213 16.796 55.9369 16.3918L55.423 16.0732C55.0998 16.4287 54.7158 16.7597 53.9059 17.016C53.3098 17.2047 52.4797 17.3538 51.2716 17.4332C51.3164 16.8086 51.2925 15.9407 51.0975 15.0662C50.8826 14.1026 50.4509 13.0903 49.63 12.4035C49.5785 11.9125 49.5265 11.4854 49.4803 11.1058L49.4802 11.105L49.48 11.1036L49.4799 11.1029L49.4769 11.0785C49.3764 10.2529 49.3071 9.67264 49.3245 9.13741L48.7878 8.92965C47.9827 9.73438 47.4432 10.1381 47.0241 10.3738C46.7017 10.555 46.4506 10.639 46.1685 10.7334C46.0814 10.7625 45.9913 10.7926 45.8952 10.8269C45.4898 10.9717 44.931 11.2385 44.4145 11.5893C44.1717 11.7542 43.9303 11.9431 43.7169 12.1524C43.7406 10.97 44.0014 9.65867 44.8661 8.16695L44.469 7.76161C44.331 7.81819 44.1956 7.87852 44.0629 7.94223C43.9374 7.43715 43.6582 6.64918 43.1577 5.97343C42.8113 5.50585 42.5621 4.93957 42.4627 4.41861C42.3608 3.88484 42.4268 3.463 42.617 3.22523L42.2694 2.77518C41.0124 3.17274 40.2081 3.88107 39.6817 4.57238C39.4893 3.98447 39.1038 3.18306 38.4066 2.30813C37.7451 1.47789 37.4154 0.984165 37.2506 0.66759C37.0945 0.367632 37.0922 0.239243 37.0922 0.125316L36.5017 0C36.0263 0.933176 35.5816 1.39251 34.9946 1.85801C34.6609 2.12257 34.2729 2.53884 33.9406 2.95131C33.7392 3.20118 33.5497 3.46038 33.4005 3.6948C33.0045 3.17952 32.5797 2.70134 32.1951 2.2683L32.1772 2.24816C31.8302 1.85754 31.5184 1.50625 31.2758 1.18838C31.0353 0.873189 30.8855 0.619008 30.8297 0.417295C30.8209 0.354197 30.8121 0.289835 30.8033 0.224193H30.1874C30.1786 0.289835 30.1698 0.354197 30.161 0.417295C30.1052 0.619008 29.9554 0.873189 29.7149 1.18838C29.4723 1.50625 29.1605 1.85754 28.8135 2.24816L28.7957 2.26818C28.4127 2.69938 27.9898 3.17539 27.5953 3.68817C27.4468 3.4555 27.2589 3.19882 27.0594 2.95131C26.7271 2.53884 26.3391 2.12257 26.0054 1.85801C25.4184 1.39251 24.9737 0.933176 24.4983 0ZM44.9185 34.0406C42.1522 32.8551 39.4498 30.8609 37.1496 27.7887C36.1563 27.8199 35.0081 27.8319 33.9361 27.7931C34.6294 28.3921 35.261 29.222 35.8833 30.2187C36.7244 31.5658 37.5749 33.2632 38.5447 35.1989C38.6537 35.4166 38.7644 35.6375 38.8766 35.861C40.5584 39.2107 43.6297 40.8593 45.0584 41.3092C45.1872 41.3459 45.3136 41.3804 45.4375 41.4127C44.9752 40.4253 44.7849 39.1197 44.7313 37.8578C44.6709 36.4333 44.7835 35.0094 44.9185 34.0406ZM41.2181 39.7599C40.1458 38.8554 39.0903 37.6532 38.3149 36.1086C38.2031 35.8859 38.0931 35.6664 37.9848 35.4503C37.0113 33.5074 36.1735 31.8353 35.3476 30.5125C34.5062 29.165 33.7039 28.2261 32.8295 27.7309C32.7613 27.7254 32.6938 27.7197 32.6271 27.7136C32.3643 27.7397 32.0958 27.7623 31.8212 27.7811C32.089 27.9676 32.3589 28.2255 32.593 28.5805C32.6369 28.6469 32.6793 28.7165 32.7201 28.7895L32.7314 28.7828C33.0452 29.247 33.2261 29.6385 33.5324 30.3016C33.5644 30.3709 33.5978 30.4432 33.6329 30.5189C34.0052 31.3223 34.5772 32.5326 35.7057 34.6477C36.8036 36.7055 38.6431 38.2761 40.6002 39.4159C40.8053 39.5354 41.0115 39.65 41.2181 39.7599ZM16.2687 37.8578C16.3291 36.4333 16.2165 35.0094 16.0815 34.0406C18.8478 32.8551 21.5502 30.8609 23.8504 27.7887C24.8437 27.8199 25.9919 27.8319 27.0639 27.7931C26.3706 28.3921 25.739 29.222 25.1167 30.2187C24.2756 31.5658 23.4251 33.2632 22.4553 35.1989C22.3463 35.4166 22.2356 35.6375 22.1234 35.861C20.4416 39.2107 17.3703 40.8593 15.9416 41.3092C15.8128 41.3459 15.6864 41.3804 15.5625 41.4127C16.0248 40.4253 16.2151 39.1197 16.2687 37.8578ZM20.3998 39.4159C20.1947 39.5354 19.9885 39.65 19.7819 39.7599C20.8542 38.8554 21.9097 37.6532 22.6851 36.1086C22.7969 35.8859 22.9069 35.6664 23.0152 35.4503C23.9887 33.5074 24.8265 31.8353 25.6524 30.5125C26.4938 29.165 27.2961 28.2261 28.1705 27.7309C28.2002 27.7285 28.2298 27.7261 28.2592 27.7236C28.2973 27.7204 28.3353 27.7171 28.3729 27.7136C28.6328 27.7394 28.8985 27.7618 29.1699 27.7805C28.9019 27.967 28.6317 28.2251 28.3973 28.5805C28.3543 28.6456 28.3127 28.7138 28.2726 28.7852L28.2686 28.7828C27.9548 29.247 27.7739 29.6385 27.4676 30.3016C27.4356 30.3709 27.4022 30.4432 27.3671 30.5189C26.9948 31.3223 26.4228 32.5326 25.2943 34.6477C24.1964 36.7055 22.3569 38.2761 20.3998 39.4159ZM27.204 4.22561C27.0744 3.98352 26.8415 3.64619 26.564 3.30189C26.2438 2.9045 25.8877 2.52671 25.6044 2.30211C25.1146 1.91371 24.7076 1.51925 24.3141 0.90952L24.3073 0.922651C24.1162 1.28978 23.7579 1.81884 23.0908 2.65619C22.1232 3.87059 21.8269 4.89239 21.782 5.288C21.9603 5.61198 22.0829 5.90153 22.1727 6.1137L22.1731 6.11468C22.199 6.17585 22.2222 6.23057 22.2432 6.2778C22.4583 6.76159 22.7666 7.14965 23.104 7.39767C23.4651 6.56287 23.777 5.74772 23.9499 4.89021L24.5394 4.82785C25.043 5.90897 25.6951 6.57166 26.1076 6.888C26.1522 6.53505 26.2362 6.16993 26.3701 5.79824C26.568 5.24899 26.864 4.72269 27.204 4.22561ZM26.0675 7.57172C25.6874 7.36748 24.9795 6.79221 24.3623 5.78965C24.1659 6.45586 23.9032 7.10499 23.621 7.75103C24.0221 8.05002 24.5885 8.51562 25.1532 9.06596C25.6455 9.54573 26.146 10.099 26.5341 10.6699C26.6231 10.5192 26.7126 10.3705 26.8024 10.2237C26.4653 9.67724 26.077 8.71788 26.0675 7.57172ZM23.2786 8.51978L23.3725 8.31084C23.7403 8.59392 24.2233 8.999 24.7058 9.4692C25.2718 10.0208 25.8238 10.6493 26.1915 11.2656C24.9609 13.4683 23.9189 16.0752 23.9189 19.2221C23.9189 19.508 23.9279 19.7853 23.9453 20.0542C22.94 18.8508 21.602 16.6236 21.6699 14.1714C21.7209 12.328 22.2795 10.7977 22.9115 9.34508C23.0316 9.06894 23.1553 8.79396 23.2786 8.51978ZM27.173 9.62973C27.4561 9.18378 27.7376 8.75614 28.0081 8.3453L28.0187 8.32917C28.6301 7.40032 29.1785 6.56666 29.5732 5.79437C29.8783 5.1975 30.0198 4.53308 30.1122 3.8401L30.163 3.4599H30.7691L30.8199 3.8401C30.9123 4.53308 31.0538 5.1975 31.3589 5.79437C31.7536 6.56666 32.302 7.40032 32.9134 8.32917L32.924 8.3453L32.9245 8.346C33.2052 8.77239 33.4979 9.21708 33.7918 9.68134C34.1881 8.90413 34.5799 7.50356 34.0325 5.98436C33.5882 4.75152 32.5882 3.62022 31.7001 2.62035L31.6947 2.61429C31.354 2.23072 31.0281 1.86382 30.7709 1.52677C30.6705 1.39525 30.5769 1.26368 30.4953 1.13308C30.4137 1.26368 30.3202 1.39525 30.2198 1.52677C29.9627 1.86369 29.637 2.23043 29.2964 2.61384L29.296 2.61431L29.2906 2.62035C28.4024 3.62022 27.4025 4.75152 26.9582 5.98436C26.4227 7.47051 26.786 8.84313 27.173 9.62973ZM34.7737 11.325C35.9898 13.5151 37.0132 16.1034 37.0132 19.2221C37.0132 19.5391 37.0021 19.8454 36.9808 20.1415C37.993 18.9607 39.3997 16.6842 39.3301 14.1714C39.2791 12.328 38.7205 10.7977 38.0885 9.34508C37.9684 9.06894 37.8449 8.79432 37.7216 8.52014L37.6275 8.31084C37.2597 8.59392 36.7767 8.999 36.2942 9.4692C35.71 10.0385 35.1407 10.6898 34.7737 11.325ZM34.4297 10.7237C34.8225 10.1338 35.339 9.56079 35.8468 9.06596C36.4115 8.51562 36.9779 8.05002 37.379 7.75103C37.0968 7.10499 36.8341 6.45586 36.6377 5.78965C36.0154 6.8005 35.3009 7.37697 34.9231 7.57671C34.9123 8.75447 34.5016 9.73445 34.1586 10.271C34.2493 10.4199 34.3398 10.5708 34.4297 10.7237ZM34.8839 6.8945C35.2959 6.58078 35.9535 5.91643 36.4606 4.82785L37.0501 4.89021C37.223 5.74772 37.5349 6.56287 37.896 7.39767C38.2334 7.14965 38.5417 6.76159 38.7568 6.2778C38.7778 6.23057 38.801 6.17585 38.8269 6.11468L38.8273 6.1137C38.9171 5.90153 39.0397 5.61198 39.218 5.288C39.1731 4.89239 38.8768 3.87059 37.9092 2.65619C37.2421 1.81884 36.8838 1.28978 36.6927 0.922651L36.6859 0.90952C36.2924 1.51925 35.8854 1.91371 35.3956 2.30211C35.1123 2.52671 34.7562 2.9045 34.436 3.30189C34.1556 3.64984 33.9206 3.99066 33.7919 4.23327C34.1298 4.72809 34.4237 5.25181 34.6206 5.79824C34.7553 6.17221 34.8395 6.53954 34.8839 6.8945ZM33.8688 26.4276C35.2521 25.3548 36.5057 23.6204 36.8916 20.9675L36.9671 21.0366C37.9981 20.048 40.0377 17.2995 39.9506 14.1563C39.942 13.8443 39.9196 13.541 39.8854 13.2456C40.1247 12.6712 40.6371 11.7489 41.4087 10.8245C41.2915 11.8061 41.1657 13.3565 41.127 15.4342C41.0915 17.3391 40.4171 20.0216 38.7828 22.373C37.6449 24.0102 36.0442 25.4842 33.8688 26.4276ZM30.7092 27.9205L30.5818 27.9057C30.5186 27.9081 30.4579 27.911 30.4043 27.9142C30.3616 27.9168 30.3255 27.9196 30.2973 27.9224C30.2735 27.9248 30.2616 27.9266 30.2583 27.9271L30.1848 27.9437L30.1688 27.9401L29.9883 28.0095C29.6678 28.1327 29.258 28.382 28.9253 28.8864C28.5926 29.3907 28.3246 30.1692 28.3225 31.3695C28.4442 32.4974 28.6596 33.0267 28.8786 33.5648L28.8813 33.5713C29.049 33.9835 29.2231 34.4113 29.3524 35.0897C29.481 35.7642 29.564 36.6786 29.564 38.0741V48.5456C29.564 49.0276 29.9809 49.4182 30.4951 49.4182C31.0094 49.4182 31.4263 49.0276 31.4263 48.5456V38.0741C31.4263 36.6786 31.5093 35.7642 31.6379 35.0897C31.7672 34.4113 31.9413 33.9835 32.109 33.5713L32.1117 33.5648C32.3307 33.0267 32.5461 32.4974 32.6678 31.3695C32.6657 30.1692 32.3977 29.3907 32.065 28.8864C31.7323 28.382 31.3225 28.1327 31.002 28.0095L30.8148 27.9375L30.8137 27.8986C30.7821 27.8994 30.7494 27.9002 30.7161 27.9012L30.7092 27.9205ZM30.2033 27.2513L30.2028 27.2623C30.2941 27.28 30.382 27.2943 30.4661 27.3055C32.4065 27.047 36.3924 25.1067 36.3924 19.2221C36.3924 14.7315 34.1907 11.3776 32.3851 8.63461L32.3787 8.62499C31.7746 7.70726 31.2094 6.84866 30.799 6.04567C30.6595 5.77259 30.5515 5.49043 30.4661 5.20441C30.3806 5.49043 30.2726 5.77259 30.1331 6.04567C29.7227 6.84858 29.1576 7.70707 28.5536 8.62469L28.547 8.63461C26.7414 11.3776 24.5397 14.7315 24.5397 19.2221C24.5397 24.7904 28.1087 26.827 30.1364 27.2489L30.2033 27.2513ZM22.2172 22.373C23.3279 23.9711 24.8795 25.4137 26.9763 26.3591C25.6372 25.2891 24.4353 23.5888 24.0486 21.0223L24.0329 21.0366C23.0019 20.048 20.9623 17.2995 21.0493 14.1563C21.058 13.8443 21.0804 13.541 21.1146 13.2456C20.8753 12.6712 20.3629 11.7489 19.5913 10.8245C19.7085 11.8061 19.8343 13.3565 19.873 15.4342C19.9085 17.3391 20.5829 20.0216 22.2172 22.373ZM39.7138 12.2105C40.0222 11.6602 40.4502 11.0165 40.9935 10.3785C41.6519 9.6054 42.4879 8.83097 43.4965 8.24297C43.4136 7.82845 43.1567 6.99241 42.6477 6.30515C42.2521 5.77104 41.9673 5.12696 41.8516 4.52104C41.7911 4.20405 41.7738 3.87895 41.8232 3.57929C40.2607 4.32331 39.6967 5.64442 39.4028 6.33277C39.3765 6.39426 39.3523 6.45103 39.3298 6.50155C39.0594 7.10978 38.6419 7.63099 38.14 7.95093C38.1872 8.05633 38.2347 8.16224 38.2826 8.26879C38.4086 8.5492 38.5366 8.83406 38.6633 9.12544C39.0781 10.0788 39.4725 11.0885 39.7138 12.2105ZM22.3367 9.12544C21.9219 10.0788 21.5275 11.0885 21.2862 12.2105C20.9778 11.6602 20.5498 11.0165 20.0065 10.3785C19.3481 9.6054 18.5121 8.83097 17.5035 8.24297C17.5864 7.82845 17.8433 6.99241 18.3523 6.30515C18.7479 5.77104 19.0327 5.12696 19.1484 4.52104C19.2089 4.20405 19.2262 3.87895 19.1768 3.57929C20.7393 4.32331 21.3033 5.64442 21.5972 6.33277C21.6235 6.39426 21.6477 6.45103 21.6702 6.50155C21.9406 7.10978 22.3581 7.63099 22.86 7.95093C22.8128 8.05633 22.7653 8.16224 22.7174 8.26879C22.5914 8.5492 22.4634 8.83406 22.3367 9.12544ZM18.8497 10.023C18.3399 9.52734 17.7554 9.0654 17.0994 8.6931C18.1711 10.9948 17.9328 12.8925 17.7365 14.4548C17.7222 14.5689 17.708 14.6815 17.6947 14.7921L17.6857 14.8651L17.6778 14.9288L17.6776 14.9303C17.5468 15.9753 17.1906 18.8214 18.4811 21.516C19.1537 22.9205 20.2754 24.2859 22.1229 25.3341C23.326 26.0167 24.8442 26.5688 26.758 26.9062C24.5233 25.9108 22.8715 24.3803 21.6971 22.6905C19.9939 20.24 19.2897 17.4491 19.2523 15.4444C19.1984 12.5464 18.974 10.7047 18.8497 10.023ZM25.4745 27.2356C24.0275 26.8876 22.8153 26.407 21.8014 25.8318C19.8365 24.717 18.6342 23.2565 17.9148 21.7542C17.6047 21.1068 17.3846 20.452 17.2312 19.8144C16.5088 19.2181 14.4603 18.1165 11.309 18.074C9.1682 18.0452 7.81355 17.8578 6.89549 17.5672C6.72736 17.514 6.57414 17.4574 6.43369 17.3979C12.2402 23.8761 18.6414 26.4464 22.1606 27.1288C22.9619 27.1789 24.1959 27.2318 25.4745 27.2356ZM17.0633 18.9717C16.7729 17.1509 16.9714 15.5743 17.06 14.8698C17.0667 14.8171 17.0727 14.7693 17.0779 14.7267C17.091 14.6175 17.1048 14.5073 17.1187 14.3961C17.1708 13.98 17.2248 13.5481 17.2566 13.0981C17.0614 12.7279 16.6755 12.3689 16.2212 12.0603C15.75 11.7403 15.2395 11.4976 14.8838 11.3706C14.8075 11.3434 14.7297 11.3174 14.6497 11.2907C14.3579 11.1934 14.0365 11.0863 13.6566 10.8726C13.2786 10.6601 12.8421 10.3442 12.2794 9.82733C12.2526 10.2186 12.2005 10.6463 12.1398 11.1445L12.137 11.1676C12.0377 11.9825 11.9131 13.0059 11.8238 14.411C11.7528 15.5278 11.8634 16.303 12.0206 16.8122C12.1564 17.2524 12.3182 17.4676 12.4045 17.5486C14.5461 17.7438 16.13 18.3996 17.0633 18.9717ZM11.6352 17.5001C11.5576 17.35 11.4861 17.1743 11.4242 16.9738C11.243 16.3863 11.13 15.5423 11.2041 14.3764C11.2266 14.0217 11.2514 13.6909 11.2775 13.3816C10.8994 13.8976 10.6558 14.5317 10.5102 15.1852C10.3202 16.0372 10.3048 16.8864 10.3534 17.4664C10.6541 17.479 10.975 17.4877 11.318 17.4923C11.4249 17.4938 11.5306 17.4964 11.6352 17.5001ZM6.99027 18.8776C7.38372 19.6501 7.82292 20.4616 8.32983 21.2626C9.50101 23.1133 10.994 24.8357 13.0122 25.7606C13.0524 25.7791 13.0927 25.7973 13.1331 25.8153C13.2115 25.8323 13.2822 25.8509 13.3449 25.8704L13.3335 25.9024C15.6254 26.8747 18.19 27.1624 20.0207 27.1853C16.5186 26.0995 11.626 23.6461 6.99027 18.8776ZM22.0769 27.7066C21.9994 27.7017 21.9263 27.6968 21.8577 27.692C20.2404 27.8707 16.299 27.8463 12.9315 26.3693C12.1094 26.2115 10.145 26.2232 7.61416 27.4862C6.35907 28.1125 5.29969 28.7036 4.36971 29.2224C3.98565 29.4367 3.62323 29.6389 3.27864 29.826C2.40125 30.3023 1.62701 30.6877 0.905182 30.9084C1.17704 31.0968 1.47038 31.3126 1.78096 31.5411L1.7824 31.5422C1.86636 31.6039 1.95158 31.6666 2.03797 31.73C2.59469 32.138 3.21227 32.5819 3.88904 33.0051C4.33159 32.9946 5.10028 32.916 5.93461 32.7289C6.80898 32.5328 7.72585 32.2239 8.41057 31.7703C10.2891 30.5257 12.2342 30.0346 13.8071 29.9655C14.8111 29.9214 16.7125 29.8115 18.6089 29.4364C20.2872 29.1045 21.8967 28.5765 22.8987 27.7516C22.5953 27.7373 22.3209 27.7221 22.0856 27.7072L22.0853 27.7082L22.0769 27.7066ZM4.76688 33.5197C6.29778 34.3547 8.06697 34.9791 10.0385 34.8672C14.0321 34.6403 18.4681 33.0012 22.1268 28.936C21.1182 29.4362 19.911 29.7734 18.7371 30.0056C16.7903 30.3907 14.8484 30.5022 13.8362 30.5467C12.3737 30.6109 10.5445 31.069 8.76892 32.2453C7.99198 32.76 6.98831 33.0908 6.07909 33.2947C5.61101 33.3997 5.16014 33.4728 4.76688 33.5197ZM43.8812 14.3956C43.8291 13.9795 43.7752 13.5481 43.7434 13.0981C43.9386 12.7279 44.3245 12.3689 44.7788 12.0603C45.25 11.7403 45.7605 11.4976 46.1162 11.3706C46.1923 11.3434 46.27 11.3175 46.3499 11.2908C46.6418 11.1935 46.9635 11.0863 47.3434 10.8726C47.7214 10.6601 48.1579 10.3442 48.7206 9.82733C48.7474 10.2186 48.7995 10.6463 48.8602 11.1445L48.863 11.1676C48.9623 11.9824 49.0869 13.0061 49.1762 14.411C49.2472 15.5278 49.1366 16.303 48.9794 16.8122C48.8436 17.2524 48.6818 17.4676 48.5955 17.5486C46.4539 17.7438 44.87 18.3996 43.9367 18.9717C44.2271 17.1509 44.0286 15.5743 43.94 14.8698L43.9281 14.7755L43.9221 14.7267C43.9091 14.6189 43.8955 14.5101 43.8818 14.4003L43.8816 14.3989L43.8812 14.3956ZM43.0852 21.7542C43.3953 21.1068 43.6154 20.452 43.7688 19.8144C44.4911 19.2181 46.5397 18.1165 49.691 18.074C51.8318 18.0452 53.1865 17.8578 54.1045 17.5672C54.2726 17.514 54.4259 17.4574 54.5663 17.3979C48.7598 23.8761 42.3586 26.4464 38.8394 27.1288C38.0381 27.1789 36.8041 27.2318 35.5255 27.2356C36.9725 26.8876 38.1847 26.407 39.1986 25.8318C41.1635 24.717 42.3658 23.2565 43.0852 21.7542ZM38.8771 25.3341C37.674 26.0167 36.1558 26.5688 34.242 26.9062C36.4767 25.9108 38.1285 24.3803 39.3029 22.6905C41.0061 20.24 41.7103 17.4491 41.7477 15.4444C41.8016 12.5464 42.026 10.7047 42.1503 10.023C42.6601 9.52733 43.2446 9.0654 43.9006 8.6931C42.8289 10.9948 43.0672 12.8925 43.2635 14.4548L43.2637 14.4565C43.278 14.5701 43.292 14.682 43.3053 14.7921C43.3104 14.8338 43.3161 14.88 43.3224 14.9303C43.4532 15.9753 43.8094 18.8214 42.5189 21.516C41.8462 22.9205 40.7246 24.2859 38.8771 25.3341ZM42.3911 29.4364C40.7128 29.1045 39.1033 28.5765 38.1013 27.7516C38.4047 27.7373 38.6791 27.7221 38.9144 27.7072L38.9147 27.7082L38.9231 27.7066C39.0006 27.7017 39.0737 27.6968 39.1423 27.692C40.7596 27.8707 44.701 27.8463 48.0685 26.3693C48.8906 26.2115 50.855 26.2232 53.3858 27.4862C54.6408 28.1125 55.7002 28.7035 56.6301 29.2224L56.6311 29.2229C57.015 29.4371 57.3769 29.639 57.7214 29.826C58.5987 30.3023 59.373 30.6877 60.0948 30.9084C59.823 31.0968 59.5296 31.3126 59.219 31.5411C59.1346 31.6032 59.0489 31.6663 58.962 31.73C58.4053 32.138 57.7877 32.5819 57.111 33.0051C56.6684 32.9946 55.8997 32.916 55.0654 32.7289C54.191 32.5328 53.2741 32.2239 52.5894 31.7703C50.7109 30.5257 48.7658 30.0346 47.1929 29.9655C46.1889 29.9214 44.2875 29.8115 42.3911 29.4364ZM47.6665 25.9024C45.3746 26.8747 42.81 27.1624 40.9793 27.1853C44.4814 26.0995 49.374 23.6461 54.0097 18.8777C53.6163 19.6501 53.1771 20.4616 52.6702 21.2626C51.499 23.1133 50.006 24.8357 47.9878 25.7606L47.9621 25.7724L47.9094 25.7962L47.8669 25.8153C47.7885 25.8323 47.7178 25.8509 47.6551 25.8704L47.6665 25.9024ZM50.4898 15.1852C50.6798 16.0372 50.6952 16.8864 50.6466 17.4664C50.3459 17.479 50.025 17.4877 49.682 17.4923C49.5751 17.4938 49.4694 17.4964 49.3648 17.5001C49.4424 17.35 49.5139 17.1743 49.5758 16.9738C49.757 16.3863 49.87 15.5423 49.7959 14.3764C49.7734 14.0217 49.7486 13.6909 49.7225 13.3816C50.1006 13.8976 50.3442 14.5317 50.4898 15.1852ZM42.2629 30.0056C44.2097 30.3907 46.1516 30.5022 47.1638 30.5467C48.6263 30.6109 50.4555 31.069 52.2311 32.2453C53.008 32.76 54.0117 33.0908 54.9209 33.2947C55.389 33.3997 55.8399 33.4728 56.2331 33.5197C54.7022 34.3547 52.933 34.9791 50.9615 34.8672C46.9679 34.6403 42.5319 33.0012 38.8732 28.936C39.8818 29.4362 41.089 29.7734 42.2629 30.0056Z" fill="#B78053"/>
</svg>
