<svg width="100" height="86" viewBox="0 0 100 86" fill="none" xmlns="http://www.w3.org/2000/svg">
<path fill-rule="evenodd" clip-rule="evenodd" d="M40.3318 0L39.3805 0.215412C39.3805 0.411245 39.3769 0.63194 39.1254 1.14755C38.8599 1.69173 38.3287 2.54041 37.2631 3.96755C36.1401 5.47151 35.5191 6.8491 35.2092 7.85969C34.3612 6.67135 33.0655 5.45378 31.0406 4.77039L30.4806 5.54401C30.787 5.95272 30.8933 6.67784 30.7292 7.59535C30.569 8.49087 30.1675 9.46427 29.6096 10.268C28.8033 11.4296 28.3535 12.7841 28.1514 13.6523C27.9376 13.5428 27.7195 13.4391 27.4972 13.3418L26.8574 14.0386C28.2505 16.6027 28.6705 18.8569 28.7087 20.8894C28.365 20.5295 27.9761 20.2049 27.585 19.9214C26.753 19.3184 25.8527 18.8597 25.1996 18.6109C25.0449 18.552 24.8998 18.5002 24.7594 18.4501C24.305 18.2879 23.9005 18.1435 23.3812 17.832C22.706 17.4268 21.8368 16.7329 20.54 15.3496L19.6755 15.7067C19.7033 16.6268 19.5918 17.6243 19.4298 19.0434L19.4251 19.0852C19.3504 19.739 19.2664 20.4747 19.1833 21.3209C17.8609 22.5015 17.1654 24.2416 16.8193 25.8981C16.5052 27.4013 16.4666 28.8931 16.5389 29.9667C14.5927 29.8303 13.2554 29.5739 12.2952 29.2497C10.9905 28.809 10.372 28.2401 9.85129 27.6289L9.02344 28.1767C9.37071 28.8714 9.74501 29.687 10.1544 30.579C11.0492 32.5288 12.1117 34.8438 13.4257 37.0594C15.0347 39.7724 17.0658 42.424 19.7384 44.2236C17.9372 44.3197 15.4824 44.8632 12.6629 46.3647C10.6187 47.4532 8.87705 48.4901 7.37232 49.3859C6.75984 49.7505 6.18596 50.0921 5.64758 50.404C3.76115 51.4967 2.32713 52.2122 1.05216 52.4189L0.867188 53.3365C1.48751 53.7242 2.23007 54.3069 3.11508 55.0014C3.25129 55.1083 3.39105 55.2179 3.53408 55.3298C4.59383 56.1587 5.81793 57.0956 7.18523 57.9614C9.91719 59.6913 13.2633 61.1655 17.0988 60.933C19.9303 60.7614 22.8877 60.1371 25.8175 58.9294C26.0122 60.5351 26.1647 62.7885 26.0754 65.0359C25.9707 67.6685 25.5369 70.1819 24.543 71.6723L25.0698 72.4373C25.554 72.3272 26.0716 72.1924 26.615 72.0321L26.6162 72.036C26.6914 72.0133 26.7696 71.9885 26.8507 71.9614C29.0822 71.2818 31.7192 70.1807 34.2574 68.6033C37.5112 66.5811 40.6321 63.7576 42.5085 60.0048C43.9947 57.0324 44.8867 55.0903 45.4939 53.7183C45.4927 53.7939 45.4922 53.8702 45.4922 53.9474V53.9723L45.4947 53.9971C45.7029 56.0796 46.0844 57.0843 46.457 58.061C46.7224 58.7568 46.9755 59.4211 47.167 60.4932C47.3599 61.5737 47.4922 63.0816 47.4922 65.4474V83.4474C47.4922 84.8281 48.6115 85.9474 49.9922 85.9474C51.3729 85.9474 52.4922 84.8281 52.4922 83.4474V65.4474C52.4922 63.0816 52.6245 61.5737 52.8174 60.4932C53.0089 59.4211 53.262 58.7568 53.5274 58.061C53.8999 57.0843 54.2815 56.0796 54.4897 53.9971L54.4922 53.9723V53.9474C54.4922 53.8577 54.4914 53.7692 54.4899 53.6817C55.0974 55.0557 55.992 57.0059 57.4915 60.0048C59.3679 63.7576 62.4888 66.5811 65.7426 68.6033C68.2808 70.1807 70.9178 71.2818 73.1493 71.9614C73.2303 71.9885 73.3086 72.0133 73.3838 72.036L73.385 72.0321C73.9284 72.1924 74.446 72.3272 74.9302 72.4373L75.457 71.6723C74.4631 70.1819 74.0293 67.6685 73.9246 65.0359C73.8353 62.7885 73.9878 60.5351 74.1825 58.9294C77.1123 60.1371 80.0697 60.7614 82.9012 60.933C86.7367 61.1655 90.0828 59.6913 92.8148 57.9614C94.1821 57.0956 95.4062 56.1587 96.4659 55.3298L96.8834 55.0026L96.8847 55.0015C97.7697 54.307 98.5125 53.7242 99.1328 53.3365L98.9478 52.4189C97.6729 52.2122 96.2389 51.4967 94.3524 50.404C93.814 50.0921 93.2408 49.7509 92.6283 49.3863C91.1236 48.4905 89.3813 47.4532 87.3371 46.3647C84.5176 44.8632 82.0628 44.3197 80.2616 44.2236C82.9342 42.424 84.9653 39.7724 86.5743 37.0594C87.8883 34.8439 88.9507 32.5289 89.8456 30.5791C90.2549 29.6871 90.6293 28.8714 90.9766 28.1767L90.1487 27.6289C89.628 28.2401 89.0095 28.809 87.7048 29.2497C86.7447 29.5739 85.4073 29.8303 83.4611 29.9667C83.5334 28.8931 83.4948 27.4013 83.1807 25.8981C82.8346 24.2416 82.1391 22.5015 80.8167 21.3209C80.7338 20.4769 80.65 19.7428 80.5755 19.0903L80.5754 19.0888L80.5751 19.0864L80.575 19.0853L80.5702 19.0434C80.4082 17.6243 80.2967 16.6268 80.3245 15.7067L79.46 15.3496C78.1632 16.7329 77.294 17.4268 76.6188 17.832C76.0995 18.1435 75.695 18.2879 75.2406 18.4501C75.1002 18.5002 74.9551 18.552 74.8004 18.6109C74.1473 18.8597 73.247 19.3184 72.415 19.9214C72.0239 20.2049 71.635 20.5295 71.2913 20.8894C71.3295 18.8569 71.7495 16.6027 73.1426 14.0386L72.5028 13.3418C72.2805 13.4391 72.0624 13.5428 71.8486 13.6523C71.6465 12.7841 71.1967 11.4296 70.3904 10.268C69.8325 9.46427 69.431 8.49087 69.2708 7.59535C69.1067 6.67784 69.213 5.95272 69.5194 5.54401L68.9594 4.77039C66.9345 5.45378 65.6388 6.67135 64.7908 7.85969C64.4809 6.8491 63.8599 5.47151 62.7369 3.96755C61.6713 2.54041 61.1401 1.69173 60.8746 1.14755C60.6231 0.63194 60.6195 0.411245 60.6195 0.215412L59.6682 0C58.9025 1.60408 58.186 2.39365 57.2404 3.19383C56.7029 3.64859 56.0779 4.36413 55.5425 5.07315C55.2181 5.50265 54.9127 5.94822 54.6724 6.35116C54.0345 5.46543 53.3503 4.64347 52.7306 3.89909L52.7018 3.86446C52.1428 3.19302 51.6405 2.58916 51.2498 2.04276C50.8624 1.50097 50.621 1.06404 50.531 0.717308C50.5169 0.608846 50.5027 0.498212 50.4886 0.385376H49.4964C49.4823 0.498212 49.4681 0.608846 49.4539 0.717308C49.364 1.06404 49.1226 1.50097 48.7352 2.04276C48.3445 2.58916 47.8422 3.19302 47.2832 3.86446L47.2546 3.89888C46.6375 4.6401 45.9564 5.45833 45.3208 6.33977C45.0815 5.93983 44.7788 5.49861 44.4575 5.07315C43.9221 4.36413 43.2971 3.64859 42.7596 3.19383C41.814 2.39365 41.0975 1.60408 40.3318 0ZM73.2269 58.5141C68.7706 56.4762 64.4174 53.0484 60.7119 47.7674C59.1118 47.8209 57.2622 47.8416 55.5353 47.7749C56.6521 48.8046 57.6696 50.2311 58.6721 51.9443C60.027 54.26 61.397 57.1777 62.9593 60.5052C63.1349 60.8792 63.3132 61.259 63.494 61.6431C66.2032 67.4012 71.1507 70.2349 73.4523 71.0083C73.6598 71.0714 73.8635 71.1307 74.063 71.1862C73.3182 69.4891 73.0117 67.2447 72.9254 65.0756C72.8281 62.627 73.0095 60.1794 73.2269 58.5141ZM67.2659 68.3451C65.5385 66.7904 63.8383 64.7238 62.5891 62.0689C62.409 61.686 62.2318 61.3087 62.0573 60.9372C60.4891 57.5974 59.1395 54.7232 57.809 52.4494C56.4537 50.1331 55.1612 48.5191 53.7527 47.668C53.6427 47.6586 53.534 47.6487 53.4266 47.6383C53.0033 47.6831 52.5706 47.7219 52.1284 47.7543C52.5598 48.0748 52.9945 48.5182 53.3717 49.1283C53.4423 49.2426 53.5106 49.3622 53.5764 49.4876L53.5947 49.4761C54.1001 50.2741 54.3915 50.9471 54.8849 52.0869C54.9365 52.206 54.9903 52.3303 55.0468 52.4604C55.6466 53.8413 56.5681 55.9219 58.3859 59.5576C60.1545 63.0948 63.1179 65.7947 66.2705 67.7539C66.6009 67.9593 66.9331 68.1563 67.2659 68.3451ZM27.0746 65.0756C27.1719 62.627 26.9905 60.1794 26.7731 58.5141C31.2294 56.4762 35.5826 53.0484 39.2881 47.7674C40.8882 47.8209 42.7378 47.8416 44.4647 47.7749C43.3479 48.8046 42.3304 50.2311 41.3279 51.9443C39.973 54.26 38.603 57.1777 37.0407 60.5052C36.8651 60.8792 36.6868 61.259 36.506 61.6431C33.7968 67.4012 28.8493 70.2349 26.5477 71.0083C26.3402 71.0714 26.1365 71.1307 25.937 71.1862C26.6818 69.4891 26.9884 67.2447 27.0746 65.0756ZM33.7295 67.7539C33.3991 67.9593 33.0669 68.1563 32.7341 68.3451C34.4615 66.7904 36.1617 64.7238 37.4109 62.0689C37.591 61.686 37.7682 61.3087 37.9427 60.9372C39.5109 57.5974 40.8605 54.7232 42.191 52.4494C43.5463 50.1331 44.8388 48.5191 46.2473 47.668C46.2952 47.6639 46.3429 47.6597 46.3903 47.6554C46.4517 47.6499 46.5128 47.6442 46.5734 47.6383C46.9922 47.6827 47.4201 47.7211 47.8574 47.7533C47.4256 48.0739 46.9903 48.5175 46.6127 49.1283C46.5435 49.2403 46.4764 49.3575 46.4119 49.4802L46.4053 49.4761C45.8999 50.2741 45.6085 50.9471 45.1151 52.0869C45.0635 52.206 45.0097 52.3303 44.9532 52.4604C44.3534 53.8413 43.4319 55.9219 41.6141 59.5576C39.8455 63.0948 36.8821 65.7947 33.7295 67.7539ZM44.6904 7.2636C44.4817 6.84746 44.1064 6.26761 43.6595 5.67577C43.1437 4.99268 42.5699 4.34328 42.1137 3.95722C41.3247 3.28957 40.6689 2.61151 40.0351 1.56342L40.0242 1.58599C39.7163 2.21707 39.1391 3.12649 38.0644 4.56585C36.5056 6.65335 36.0284 8.40977 35.956 9.0898C36.2432 9.6467 36.4407 10.1444 36.5855 10.5091L36.5862 10.5108C36.6279 10.616 36.6652 10.71 36.6991 10.7912C37.0456 11.6228 37.5421 12.2899 38.0857 12.7162C38.6674 11.2812 39.1698 9.88003 39.4484 8.40602L40.398 8.29883C41.2093 10.1572 42.2597 11.2963 42.9242 11.8401C42.9961 11.2334 43.1313 10.6058 43.3471 9.96687C43.6659 9.02274 44.1427 8.11805 44.6904 7.2636ZM42.8597 13.0154C42.2473 12.6643 41.1069 11.6755 40.1127 9.95211C39.7963 11.0973 39.3732 12.2131 38.9186 13.3236C39.5647 13.8376 40.4771 14.6379 41.3868 15.5839C42.1799 16.4086 42.9862 17.3597 43.6113 18.341C43.7546 18.082 43.8989 17.8264 44.0435 17.5741C43.5005 16.6347 42.8749 14.9856 42.8597 13.0154ZM38.367 14.6451L38.5182 14.2859C39.1107 14.7725 39.8888 15.4688 40.666 16.2771C41.5779 17.2253 42.4671 18.3056 43.0594 19.365C41.077 23.1513 39.3984 27.6323 39.3984 33.0419C39.3984 33.5333 39.413 34.0099 39.441 34.4721C37.8215 32.4036 35.6661 28.5752 35.7755 24.3598C35.8577 21.1913 36.7575 18.5606 37.7756 16.0637C37.9691 15.589 38.1683 15.1164 38.367 14.6451ZM44.6405 16.553C45.0966 15.7864 45.5501 15.0513 45.9858 14.3451L46.0029 14.3174C46.9878 12.7208 47.8712 11.2878 48.507 9.96022C48.9984 8.93423 49.2265 7.79212 49.3754 6.60094L49.457 5.94739H50.4336L50.5153 6.60094C50.6642 7.79212 50.8922 8.93423 51.3836 9.96022C52.0194 11.2878 52.9028 12.7208 53.8878 14.3174L53.9049 14.3451L53.9056 14.3463C54.3578 15.0793 54.8293 15.8437 55.3028 16.6417C55.9412 15.3057 56.5723 12.8982 55.6905 10.2868C54.9748 8.16761 53.364 6.22296 51.9332 4.50425L51.9245 4.49382C51.3757 3.83448 50.8507 3.20381 50.4364 2.62443C50.2747 2.39836 50.1239 2.1722 49.9925 1.9477C49.861 2.1722 49.7103 2.39836 49.5486 2.62443C49.1345 3.20359 48.6097 3.834 48.0611 4.49306L48.0604 4.49385L48.0518 4.50425C46.621 6.22296 45.0102 8.16761 44.2945 10.2868C43.4319 12.8414 44.017 15.2009 44.6405 16.553ZM56.8845 19.467C58.8436 23.2317 60.4922 27.6808 60.4922 33.0419C60.4922 33.5866 60.4743 34.1132 60.44 34.6222C62.0706 32.5925 64.3366 28.6793 64.2245 24.3598C64.1423 21.1913 63.2425 18.5606 62.2244 16.0637C62.0309 15.589 61.8319 15.117 61.6333 14.6457L61.4818 14.2859C60.8893 14.7725 60.1112 15.4688 59.334 16.2771C58.3928 17.2557 57.4758 18.3751 56.8845 19.467ZM56.3304 18.4334C56.9632 17.4195 57.7952 16.4345 58.6132 15.5839C59.5229 14.6379 60.4353 13.8376 61.0814 13.3236C60.6268 12.2131 60.2037 11.0973 59.8873 9.95211C58.8849 11.6897 57.7338 12.6806 57.1253 13.024C57.1078 15.0485 56.4463 16.733 55.8936 17.6554C56.0399 17.9113 56.1856 18.1706 56.3304 18.4334ZM57.0621 11.8513C57.7258 11.312 58.7851 10.17 59.602 8.29883L60.5516 8.40602C60.8302 9.88003 61.3326 11.2812 61.9143 12.7162C62.4579 12.2899 62.9544 11.6228 63.3009 10.7912C63.3348 10.71 63.3721 10.616 63.4138 10.5108L63.4145 10.5091C63.5593 10.1444 63.7568 9.6467 64.044 9.0898C63.9716 8.40977 63.4944 6.65335 61.9356 4.56585C60.8609 3.12649 60.2837 2.21707 59.9758 1.58599L59.9649 1.56342C59.3311 2.61151 58.6753 3.28957 57.8863 3.95722C57.4301 4.34328 56.8563 4.99268 56.3405 5.67577C55.8888 6.27388 55.5104 6.85974 55.303 7.27677C55.8472 8.12734 56.3207 9.02759 56.6379 9.96687C56.855 10.6097 56.9906 11.2411 57.0621 11.8513ZM55.4268 45.4276C57.6552 43.5836 59.6747 40.6022 60.2964 36.0421L60.4179 36.1608C62.0787 34.4614 65.3643 29.7369 65.2242 24.3339C65.2103 23.7976 65.1741 23.2763 65.119 22.7685C65.5045 21.7811 66.3299 20.1958 67.5729 18.6067C67.3842 20.294 67.1815 22.9591 67.1191 26.5307C67.062 29.805 65.9755 34.4161 63.3428 38.4581C61.5098 41.2723 58.9313 43.8061 55.4268 45.4276ZM50.3371 47.9938L50.1318 47.9684C50.0299 47.9726 49.9321 47.9775 49.8458 47.9831C49.7771 47.9875 49.7189 47.9923 49.6735 47.9971C49.6351 48.0012 49.616 48.0044 49.6107 48.0052L49.4922 48.0337L49.4665 48.0275L49.1757 48.1468C48.6594 48.3586 47.9992 48.7872 47.4633 49.6541C46.9274 50.521 46.4956 51.8594 46.4922 53.9225C46.6883 55.8614 47.0353 56.7713 47.3881 57.6961L47.3924 57.7073C47.6626 58.4158 47.9431 59.1512 48.1514 60.3174C48.3584 61.4769 48.4922 63.0487 48.4922 65.4474V83.4474C48.4922 84.2758 49.1638 84.9474 49.9922 84.9474C50.8206 84.9474 51.4922 84.2758 51.4922 83.4474V65.4474C51.4922 63.0487 51.6259 61.4769 51.833 60.3174C52.0413 59.1512 52.3218 58.4158 52.592 57.7073L52.5963 57.6962C52.949 56.7713 53.2961 55.8614 53.4922 53.9225C53.4888 51.8594 53.057 50.521 52.5211 49.6541C51.9852 48.7872 51.325 48.3586 50.8087 48.1468L50.5072 48.0231L50.5054 47.9562C50.4545 47.9576 50.4017 47.959 50.3481 47.9607L50.3371 47.9938ZM49.522 46.8436L49.5213 46.8624C49.6683 46.8928 49.8099 46.9175 49.9453 46.9368C53.0713 46.4923 59.4922 43.157 59.4922 33.0419C59.4922 25.3227 55.9454 19.5575 53.0367 14.8424L53.0265 14.8259C52.0533 13.2484 51.1428 11.7725 50.4817 10.3922C50.2569 9.92277 50.0829 9.43777 49.9453 8.94612C49.8077 9.43777 49.6338 9.92277 49.4089 10.3922C48.7479 11.7723 47.8375 13.2481 46.8645 14.8254L46.8539 14.8424C43.9452 19.5575 40.3984 25.3227 40.3984 33.0419C40.3984 42.6135 46.1478 46.1143 49.4143 46.8395L49.522 46.8436ZM36.6572 38.4581C38.4464 41.2051 40.9459 43.6849 44.3236 45.3099C42.1665 43.4707 40.2303 40.5479 39.6073 36.1362L39.5821 36.1608C37.9213 34.4614 34.6357 29.7369 34.7758 24.3339C34.7897 23.7976 34.8259 23.2763 34.881 22.7685C34.4955 21.7811 33.6701 20.1958 32.4271 18.6067C32.6158 20.294 32.8185 22.9591 32.8809 26.5307C32.938 29.805 34.0245 34.4161 36.6572 38.4581ZM64.8426 20.9893C65.3395 20.0433 66.0289 18.9368 66.9041 17.8401C67.9647 16.5112 69.3114 15.18 70.9361 14.1692C70.8026 13.4567 70.3889 12.0196 69.5689 10.8382C68.9316 9.92012 68.4727 8.81297 68.2865 7.77143C68.189 7.22655 68.1611 6.6677 68.2407 6.15262C65.7237 7.43155 64.815 9.70247 64.3416 10.8857C64.2993 10.9914 64.2602 11.089 64.224 11.1758C63.7884 12.2213 63.1159 13.1173 62.3074 13.6672C62.3833 13.8484 62.46 14.0305 62.5371 14.2136C62.74 14.6956 62.9462 15.1853 63.1504 15.6862C63.8186 17.3249 64.4538 19.0606 64.8426 20.9893ZM36.8496 15.6862C36.1814 17.3249 35.5462 19.0606 35.1574 20.9893C34.6605 20.0433 33.9711 18.9368 33.0959 17.8401C32.0353 16.5112 30.6886 15.18 29.0639 14.1692C29.1974 13.4567 29.6111 12.0196 30.4311 10.8382C31.0684 9.92012 31.5272 8.81297 31.7136 7.77143C31.811 7.22655 31.8389 6.6677 31.7593 6.15262C34.2763 7.43155 35.185 9.70247 35.6584 10.8857C35.7007 10.9914 35.7398 11.089 35.776 11.1758C36.2116 12.2213 36.8841 13.1173 37.6926 13.6672C37.6167 13.8484 37.54 14.0305 37.4629 14.2136C37.26 14.6956 37.0538 15.1853 36.8496 15.6862ZM31.2324 17.2289C30.4111 16.377 29.4695 15.583 28.4128 14.943C30.1392 18.8995 29.7553 22.1615 29.4391 24.847C29.4161 25.0432 29.3933 25.2368 29.3718 25.4268L29.3573 25.5523L29.3445 25.6618L29.3442 25.6644C29.1335 27.4608 28.5597 32.353 30.6386 36.9849C31.7222 39.3991 33.5291 41.7462 36.5053 43.548C38.4433 44.7214 40.889 45.6704 43.972 46.2504C40.3721 44.5393 37.7111 41.9084 35.8193 39.0038C33.0756 34.7915 31.9412 29.9941 31.881 26.5481C31.794 21.5667 31.4326 18.4009 31.2324 17.2289ZM41.9044 46.8165C39.5734 46.2184 37.6206 45.3922 35.9874 44.4035C32.8221 42.4872 30.8853 39.9766 29.7263 37.3944C29.2268 36.2815 28.8723 35.156 28.6251 34.0599C27.4615 33.0349 24.1614 31.1413 19.0851 31.0683C15.6363 31.0187 13.4541 30.6966 11.9752 30.1971C11.7044 30.1056 11.4575 30.0083 11.2313 29.9061C20.585 41.0417 30.8968 45.4599 36.566 46.633C37.8568 46.7192 39.8446 46.8101 41.9044 46.8165ZM28.3547 32.6114C27.8868 29.4815 28.2065 26.7713 28.3494 25.5605C28.3601 25.4699 28.3698 25.3877 28.3781 25.3143C28.3993 25.1267 28.4215 24.9373 28.444 24.7461C28.5278 24.0309 28.6149 23.2886 28.6661 22.5149C28.3516 21.8785 27.7299 21.2615 26.9981 20.7311C26.239 20.1809 25.4167 19.7637 24.8436 19.5454C24.7208 19.4986 24.5955 19.454 24.4665 19.4082C23.9965 19.2409 23.4788 19.0567 22.8667 18.6895C22.2578 18.3241 21.5547 17.7811 20.6483 16.8927C20.605 17.5652 20.5211 18.3005 20.4234 19.1568L20.4189 19.1965C20.2589 20.5972 20.0581 22.3565 19.9142 24.7718C19.7999 26.6915 19.9782 28.024 20.2313 28.8992C20.4501 29.656 20.7107 30.0259 20.8497 30.1652C24.2997 30.5006 26.8511 31.628 28.3547 32.6114ZM19.6104 30.0817C19.4855 29.8237 19.3703 29.5218 19.2706 29.177C18.9786 28.1672 18.7967 26.7164 18.916 24.7123C18.9523 24.1026 18.9922 23.534 19.0342 23.0023C18.4252 23.8893 18.0328 24.9793 17.7981 26.1026C17.4921 27.5671 17.4673 29.0269 17.5456 30.0239C18.0299 30.0454 18.547 30.0605 19.0994 30.0684C19.2716 30.0709 19.442 30.0754 19.6104 30.0817ZM12.1279 32.4497C12.7617 33.7775 13.4692 35.1724 14.2858 36.5493C16.1725 39.7305 18.5776 42.6913 21.8286 44.2812C21.8934 44.3129 21.9584 44.3442 22.0235 44.3751C22.1498 44.4044 22.2637 44.4363 22.3646 44.4699L22.3463 44.5248C26.0383 46.1961 30.1697 46.6907 33.1188 46.7301C27.4772 44.8637 19.5956 40.6465 12.1279 32.4497ZM36.4312 47.6262C36.3064 47.6178 36.1884 47.6094 36.078 47.6011C33.4727 47.9082 27.1234 47.8664 21.6986 45.3275C20.3743 45.0561 17.2099 45.0763 13.1329 47.2473C11.1111 48.324 9.40452 49.34 7.9064 50.2319C7.28772 50.6002 6.7039 50.9478 6.1488 51.2693C4.73539 52.088 3.48816 52.7506 2.32536 53.1299C2.76329 53.4538 3.23584 53.8247 3.73616 54.2175L3.73848 54.2193C3.87373 54.3255 4.01101 54.4333 4.15019 54.5421C5.047 55.2436 6.04188 56.0066 7.13209 56.734C7.845 56.716 9.08329 56.581 10.4273 56.2593C11.8358 55.9222 13.3129 55.3912 14.4159 54.6114C17.4421 52.4721 20.5754 51.628 23.1092 51.5092C24.7265 51.4334 27.7895 51.2445 30.8445 50.5997C33.548 50.0291 36.1408 49.1215 37.7549 47.7035C37.2662 47.6791 36.8241 47.6528 36.4451 47.6272L36.4447 47.629L36.4312 47.6262ZM8.54621 57.6186C11.0124 59.0539 13.8624 60.1273 17.0383 59.9348C23.4717 59.5449 30.6177 56.7274 36.5116 49.7394C34.8867 50.5992 32.9421 51.179 31.051 51.5781C27.9149 52.24 24.7866 52.4317 23.1561 52.5081C20.8001 52.6186 17.8535 53.4059 14.9931 55.428C13.7416 56.3128 12.1247 56.8813 10.6601 57.2318C9.90603 57.4123 9.17971 57.5379 8.54621 57.6186ZM71.5559 24.7452C71.4721 24.03 71.3851 23.2886 71.3339 22.5149C71.6484 21.8785 72.2701 21.2615 73.0019 20.7311C73.761 20.1809 74.5833 19.7637 75.1564 19.5454C75.279 19.4987 75.4042 19.4542 75.5329 19.4084C76.003 19.2411 76.5212 19.0567 77.1333 18.6895C77.7422 18.3241 78.4453 17.7811 79.3517 16.8927C79.395 17.5652 79.4789 18.3005 79.5766 19.1568L79.5811 19.1965C79.7411 20.5972 79.9419 22.3568 80.0858 24.7718C80.2001 26.6915 80.0219 28.024 79.7687 28.8992C79.5499 29.656 79.2893 30.0259 79.1503 30.1652C75.7003 30.5006 73.1489 31.628 71.6453 32.6114C72.1132 29.4815 71.7934 26.7713 71.6506 25.5605L71.6315 25.3983L71.6219 25.3143C71.6009 25.1291 71.579 24.9421 71.5569 24.7533L71.5566 24.751L71.5559 24.7452ZM70.2737 37.3944C70.7732 36.2815 71.1277 35.156 71.3749 34.0599C72.5385 33.0349 75.8386 31.1413 80.9149 31.0683C84.3637 31.0187 86.5459 30.6966 88.0248 30.1971C88.2956 30.1056 88.5425 30.0083 88.7687 29.9061C79.415 41.0417 69.1032 45.4599 63.434 46.633C62.1432 46.7192 60.1554 46.8101 58.0956 46.8165C60.4266 46.2184 62.3794 45.3922 64.0126 44.4035C67.1779 42.4872 69.1147 39.9766 70.2737 37.3944ZM63.4947 43.548C61.5567 44.7214 59.111 45.6704 56.028 46.2504C59.6279 44.5393 62.2889 41.9084 64.1807 39.0038C66.9244 34.7915 68.0588 29.9941 68.119 26.5481C68.206 21.5667 68.5674 18.4009 68.7676 17.2289C69.5889 16.377 70.5305 15.583 71.5872 14.943C69.8608 18.8995 70.2447 22.1615 70.5609 24.847L70.5612 24.85C70.5842 25.0453 70.6068 25.2376 70.6282 25.4268C70.6364 25.4986 70.6457 25.5779 70.6558 25.6644C70.8665 27.4608 71.4403 32.353 69.3614 36.9849C68.2778 39.3991 66.4709 41.7462 63.4947 43.548ZM69.1555 50.5997C66.452 50.0291 63.8592 49.1215 62.2451 47.7035C62.7338 47.6791 63.1759 47.6528 63.5549 47.6272L63.5553 47.629L63.5688 47.6262C63.6936 47.6178 63.8116 47.6094 63.922 47.6011C66.5273 47.9082 72.8766 47.8664 78.3014 45.3275C79.6257 45.0561 82.7901 45.0763 86.8671 47.2473C88.8888 48.3239 90.5953 49.3398 92.0933 50.2317L92.0949 50.2326C92.7133 50.6008 93.2963 50.9479 93.8512 51.2693C95.2646 52.088 96.5118 52.7506 97.6746 53.1299C97.2367 53.4538 96.7642 53.8247 96.2638 54.2175C96.1278 54.3243 95.9898 54.4327 95.8498 54.5421C94.953 55.2436 93.9581 56.0066 92.8679 56.734C92.155 56.716 90.9167 56.581 89.5727 56.2593C88.1642 55.9222 86.6871 55.3912 85.5841 54.6114C82.5579 52.4721 79.4246 51.628 76.8908 51.5092C75.2735 51.4334 72.2105 51.2445 69.1555 50.5997ZM77.6537 44.5248C73.9617 46.1961 69.8303 46.6907 66.8812 46.7301C72.5228 44.8637 80.4044 40.6465 87.8721 32.4497C87.2383 33.7775 86.5308 35.1724 85.7142 36.5493C83.8275 39.7305 81.4224 42.6913 78.1714 44.2812L78.1299 44.3014L78.045 44.3424L77.9765 44.3751C77.8502 44.4044 77.7363 44.4363 77.6354 44.4699L77.6537 44.5248ZM82.2019 26.1026C82.5079 27.5671 82.5327 29.0269 82.4544 30.0239C81.9701 30.0454 81.453 30.0605 80.9006 30.0684C80.7284 30.0709 80.558 30.0754 80.3896 30.0817C80.5145 29.8237 80.6297 29.5218 80.7294 29.177C81.0214 28.1672 81.2033 26.7164 81.084 24.7123C81.0477 24.1026 81.0078 23.534 80.9658 23.0023C81.5748 23.8893 81.9672 24.9793 82.2019 26.1026ZM68.949 51.5781C72.0851 52.24 75.2134 52.4317 76.8439 52.5081C79.1999 52.6186 82.1466 53.4059 85.0069 55.428C86.2584 56.3128 87.8753 56.8813 89.3399 57.2318C90.094 57.4123 90.8203 57.5379 91.4538 57.6186C88.9876 59.0539 86.1376 60.1273 82.9617 59.9348C76.5283 59.5449 69.3823 56.7274 63.4884 49.7394C65.1133 50.5992 67.0579 51.179 68.949 51.5781Z" fill="#B78053"/>
</svg>
