<svg width="96" height="19" viewBox="0 0 96 19" fill="none" xmlns="http://www.w3.org/2000/svg">
<path d="M38.6555 1.51119H39.6882V11.5858C39.6882 12.4254 39.3114 11.9356 39.2277 11.7677L32.8921 1.95896C31.2733 -0.461754 29.18 1.55317 28.1473 0L27.6868 0.11194L28.6776 1.65112C28.8311 1.88899 28.8591 2.01493 28.8591 2.42071V17.5187C28.8591 18.5541 29.5429 18.9319 30.1011 18.9319H30.3941V17.9244H30.2127C29.9894 17.9244 29.8638 17.7425 29.8638 17.5187V3.91791C29.8638 3.51213 29.9894 3.66605 30.0173 3.72202L39.8556 18.9319H40.6929V1.51119H41.7675V0.573694H38.6695V1.51119H38.6555ZM14.0527 0.573694H0V1.51119H6.16813C5.91727 1.63796 5.70628 1.83184 5.55851 2.07139C5.41073 2.31093 5.33193 2.5868 5.33083 2.86847V18.834H7.21476C7.41289 18.8347 7.60921 18.7961 7.7924 18.7204C7.97558 18.6448 8.14202 18.5335 8.28212 18.393C8.42222 18.2525 8.53321 18.0856 8.60869 17.902C8.68417 17.7183 8.72265 17.5214 8.72191 17.3228V2.36474C8.72191 1.79105 9.07078 1.4972 9.47548 1.4972H14.0527V0.573694ZM54.8713 17.8405H48.0333C48.2307 17.7017 48.3921 17.5174 48.5038 17.3032C48.6155 17.0889 48.6743 16.8509 48.6752 16.6091V10.6483C48.6752 10.2845 48.8846 10.1026 49.1357 10.1026H53.8246V9.16512H49.1357C48.8148 9.16512 48.6752 8.91325 48.6752 8.61941V2.36474C48.6752 1.79105 49.0241 1.4972 49.4288 1.4972H56.197V0.573694H44.5027V1.51119H46.1215C45.8706 1.63796 45.6596 1.83184 45.5118 2.07139C45.3641 2.31093 45.2853 2.5868 45.2842 2.86847V18.834H54.969C56.1691 18.834 56.2528 18.0224 56.2528 17.3787H55.276C55.276 17.5886 55.276 17.8405 54.8713 17.8405ZM25.9145 17.4627L20.7093 0.573694H19.6487L13.4527 18.82H13.9271C14.5412 17.0429 17.067 18.4981 18.0439 15.7556L21.1559 6.59049C21.2117 6.40858 21.3791 6.22668 21.5745 6.82836V6.81437C23.0398 11.5578 24.8958 17.5886 24.8958 17.5886C25.0214 17.9944 25.3005 18.9319 26.3611 18.9319H26.6262V17.9244H26.389C26.082 17.9244 25.9843 17.7006 25.9145 17.4627ZM96.4155 17.9244C96.1224 17.9244 96.0247 17.7006 95.955 17.4627L90.7497 0.573694H89.6891L83.4931 18.82H83.9676C84.5816 17.0429 87.1075 18.4981 88.0843 15.7556L91.1963 6.59049C91.2521 6.40858 91.4196 6.22668 91.6149 6.82836V6.81437C93.0802 11.5578 94.9362 17.5886 94.9362 17.5886C95.0618 17.9944 95.3409 18.9319 96.4015 18.9319H96.6667V17.9244H96.4155ZM77.0738 10.8442C78.2779 10.4845 79.3127 9.70226 79.9889 8.64043C80.665 7.57861 80.9374 6.30822 80.7561 5.06158C80.5749 3.81495 79.9522 2.67539 79.0018 1.85131C78.0515 1.02724 76.837 0.573716 75.5806 0.573694H67.8216V1.51119H69.5939C69.343 1.63796 69.132 1.83184 68.9842 2.07139C68.8365 2.31093 68.7577 2.5868 68.7566 2.86847V18.834H70.6405C70.8386 18.8347 71.0349 18.7961 71.2181 18.7204C71.4013 18.6448 71.5678 18.5335 71.7079 18.393C71.848 18.2525 71.9589 18.0856 72.0344 17.902C72.1099 17.7183 72.1484 17.5214 72.1476 17.3228V2.36474C72.1476 1.79105 72.4965 1.4972 72.9012 1.4972H75.5666C76.1311 1.4972 76.69 1.60868 77.2115 1.82526C77.7329 2.04184 78.2068 2.35929 78.6059 2.75948C79.005 3.15968 79.3216 3.63478 79.5376 4.15765C79.7536 4.68053 79.8648 5.24095 79.8648 5.8069C79.8648 6.37286 79.7536 6.93328 79.5376 7.45616C79.3216 7.97903 79.005 8.45413 78.6059 8.85432C78.2068 9.25452 77.7329 9.57197 77.2115 9.78855C76.69 10.0051 76.1311 10.1166 75.5666 10.1166H72.8733V11.0541H73.3757C73.585 11.0541 73.9897 11.18 74.3107 11.7537L77.1017 16.833C78.3855 19.0998 80.3253 17.3508 81.1486 18.806H81.6231L77.4087 11.1381C77.3265 11.0108 77.2105 10.909 77.0738 10.8442ZM58.9741 1.51119H60.7464C60.4955 1.63796 60.2845 1.83184 60.1367 2.07139C59.9889 2.31093 59.9102 2.5868 59.9091 2.86847V17.8545H58.9741V18.834H64.2491V17.8545H62.6722C62.8696 17.7157 63.0309 17.5314 63.1426 17.3172C63.2543 17.1029 63.3131 16.8649 63.3141 16.6231V2.36474C63.3141 1.79105 63.663 1.4972 64.0677 1.4972H64.6119V0.573694H58.9741V1.51119Z" fill="white"/>
</svg>
