<svg width="69" height="6" viewBox="0 0 69 6" fill="none" xmlns="http://www.w3.org/2000/svg">
<path fill-rule="evenodd" clip-rule="evenodd" d="M9.58146 5.87383V2.30574H8.17199V0.78055H12.9586V2.33372H11.6608V5.87383H9.58146ZM19.9361 5.87383V2.33372H18.5546V0.78055H23.369V2.36171H22.0294V5.87383H19.9361ZM12.7353 5.87383L14.6332 0.78055H16.866L18.736 5.87383H16.7264L15.7496 2.9354L14.7727 5.87383H12.7353ZM23.0899 5.87383L24.9878 0.78055H27.1927L29.0627 5.87383H27.0811L26.1042 2.9354L25.0716 5.87383H23.0899ZM2.85512 1.6201L1.98991 3.92887H3.66451L2.85512 1.6201ZM2.26901 0.752566H3.4831L5.46472 5.88783H4.37622L3.95757 4.67047H1.72476L1.2782 5.88783H0.273438L2.26901 0.752566ZM64.5225 0.766557H68.2345V1.55014H66.8669V5.87383H65.8622V1.55014H64.5225V0.766557ZM63.6433 0.934469L63.5735 1.74603C63.5596 1.73204 63.5317 1.73204 63.5038 1.71805C63.1543 1.5663 62.7814 1.47635 62.4013 1.45219C61.8431 1.45219 61.3966 1.6201 61.0616 1.96992C60.8909 2.15616 60.7586 2.37444 60.6723 2.6122C60.5861 2.84995 60.5477 3.10246 60.5593 3.35518C60.548 3.60061 60.5882 3.84568 60.6771 4.07462C60.766 4.30356 60.9018 4.5113 61.0756 4.68447C61.2586 4.85559 61.4738 4.98831 61.7087 5.07481C61.9435 5.16132 62.1932 5.19987 62.4432 5.1882C62.7349 5.16451 63.0216 5.09852 63.2944 4.9923C63.434 4.95033 63.5317 4.92234 63.6015 4.89436L63.6852 5.70593C63.6154 5.71992 63.5317 5.7479 63.4061 5.77589C63.0662 5.8828 62.7149 5.94857 62.3595 5.97178C61.4803 5.97178 60.7825 5.73391 60.2802 5.25816C59.7778 4.78242 59.5126 4.13876 59.5126 3.34119C59.5126 2.54361 59.7638 1.88596 60.2802 1.38223C60.7965 0.878499 61.4663 0.640625 62.3036 0.640625C62.6641 0.660067 63.0205 0.725905 63.3642 0.83652C63.4898 0.89249 63.5875 0.906484 63.6433 0.934469ZM53.9864 0.766557H54.9912V3.76096C54.9912 4.2507 55.0749 4.61451 55.2424 4.85238C55.4098 5.09025 55.675 5.20219 56.0239 5.20219C56.1794 5.211 56.3347 5.18112 56.4759 5.11521C56.6171 5.04929 56.7399 4.94939 56.8333 4.82439C57.0147 4.57253 57.1124 4.20872 57.1124 3.71898V0.766557H58.0613V3.73298C58.0613 4.47458 57.8938 5.04827 57.5589 5.41208C57.224 5.77589 56.7077 5.97178 56.0239 5.97178C55.3401 5.97178 54.8516 5.78988 54.5167 5.41208C54.1818 5.03428 54.0004 4.48857 54.0004 3.76096V0.766557H53.9864ZM48.1951 0.766557H49.6464C50.0203 0.761746 50.3938 0.789839 50.7628 0.850513C51.0298 0.893637 51.2858 0.988705 51.5164 1.13036C51.8662 1.34917 52.1506 1.65854 52.3397 2.02589C52.5237 2.42999 52.6188 2.869 52.6188 3.3132C52.6188 3.7574 52.5237 4.19641 52.3397 4.60051C52.1493 4.97141 51.8593 5.28158 51.5024 5.49604C51.2656 5.64835 50.9992 5.7485 50.7209 5.78988C50.3431 5.85579 49.9602 5.88856 49.5766 5.88783H48.1951V0.766557ZM49.1998 1.52216V5.09025H49.786C50.3442 5.09025 50.7907 4.93633 51.0977 4.6145C51.4047 4.29268 51.5722 3.85891 51.5722 3.29921C51.5722 2.73951 51.4187 2.29175 51.0977 1.98391C50.7768 1.67607 50.3302 1.52216 49.7441 1.52216H49.1998ZM44.3156 0.654618C45.0692 0.654618 45.6553 0.89249 46.0879 1.36824C46.5205 1.84398 46.7298 2.48764 46.7298 3.32719C46.7298 4.16674 46.5205 4.8104 46.0879 5.28615C45.6553 5.7619 45.0692 5.99977 44.3156 5.99977C43.562 5.99977 42.9759 5.7619 42.5433 5.28615C42.1107 4.8104 41.9014 4.16674 41.9014 3.32719C41.9014 2.48764 42.1107 1.84398 42.5433 1.36824C42.9759 0.89249 43.562 0.654618 44.3156 0.654618ZM44.3156 1.41021C44.1182 1.40466 43.9226 1.4492 43.7469 1.53971C43.5712 1.63022 43.4212 1.76376 43.3108 1.92794C43.0596 2.27775 42.934 2.72551 42.934 3.29921C42.934 3.8729 43.0596 4.33465 43.3108 4.68447C43.4253 4.84451 43.5761 4.97491 43.7508 5.06486C43.9256 5.15481 44.1192 5.20173 44.3156 5.20173C44.512 5.20173 44.7056 5.15481 44.8803 5.06486C45.055 4.97491 45.2059 4.84451 45.3203 4.68447C45.5937 4.2759 45.7305 3.79081 45.7111 3.29921C45.7111 2.72551 45.5855 2.26376 45.3203 1.92794C45.2078 1.76593 45.0573 1.63404 44.8822 1.54379C44.707 1.45354 44.5125 1.40768 44.3156 1.41021ZM37.1008 0.766557H38.7754C39.4034 0.766557 39.8639 0.878498 40.1709 1.08839C40.3234 1.19989 40.4454 1.34802 40.5259 1.51916C40.6064 1.69031 40.6427 1.87899 40.6314 2.06786C40.6423 2.36377 40.5428 2.65311 40.3523 2.87943C40.1433 3.10951 39.8631 3.26231 39.5569 3.3132C39.6882 3.35431 39.8078 3.42627 39.9058 3.52309C40.0305 3.69412 40.1293 3.88274 40.1988 4.08279L40.9105 5.85984H39.85L39.2778 4.32066C39.2261 4.13473 39.1129 3.97193 38.9568 3.85891C38.7818 3.76362 38.5834 3.71996 38.3847 3.73298H38.0637V5.87383H37.1008V0.766557ZM38.0916 1.48018V3.01936H38.608C38.8732 3.03229 39.136 2.96396 39.3615 2.82346C39.4507 2.75833 39.5219 2.67146 39.5683 2.57108C39.6147 2.4707 39.6348 2.36011 39.6267 2.24977C39.6363 2.13725 39.6169 2.02415 39.5705 1.92126C39.5241 1.81837 39.4522 1.72914 39.3615 1.66208C39.1801 1.53615 38.915 1.48018 38.5242 1.48018H38.0916ZM32.3701 0.766557H33.8912C34.547 0.766557 35.0355 0.89249 35.3564 1.15835C35.6774 1.42421 35.8309 1.816 35.8309 2.36171C35.8427 2.58109 35.8034 2.8002 35.7162 3.00176C35.629 3.20331 35.4963 3.38178 35.3285 3.52309C34.9936 3.80294 34.5191 3.94286 33.9191 3.94286H33.3748V5.88783H32.3701V0.766557ZM33.3748 1.48018V3.20126H33.7795C34.1144 3.20126 34.3656 3.1313 34.5331 2.97738C34.6233 2.90055 34.6944 2.80356 34.7404 2.69419C34.7865 2.58483 34.8063 2.46615 34.7982 2.34771C34.8054 2.22858 34.7867 2.1093 34.7433 1.99815C34.6999 1.88701 34.633 1.78666 34.547 1.70406C34.3468 1.5414 34.0923 1.46134 33.8353 1.48018H33.3748Z" fill="white"/>
</svg>
