<svg width="53" height="5" viewBox="0 0 53 5" fill="none" xmlns="http://www.w3.org/2000/svg">
<path fill-rule="evenodd" clip-rule="evenodd" d="M8.04732 4.90324V2.1677H6.96836V0.998389H10.6326V2.18916H9.63907V4.90324H8.04732ZM15.974 4.90324V2.18916H14.9164V0.998389H18.602V2.21061H17.5764V4.90324H15.974ZM10.4616 4.90324L11.9145 0.998389H13.6238L15.0553 4.90324H13.5169L12.7691 2.65044L12.0213 4.90324H10.4616ZM18.3883 4.90324L19.8412 0.998389H21.5291L22.9606 4.90324H21.4436L20.6958 2.65044L19.9053 4.90324H18.3883ZM2.8982 1.64205L2.23586 3.4121H3.5178L2.8982 1.64205ZM2.44952 0.976935H3.37893L4.89589 4.91397H4.06263L3.74214 3.98066H2.03289L1.69104 4.91397H0.921875L2.44952 0.976935ZM50.1056 0.987661H52.9473V1.58841H51.9003V4.90324H51.1312V1.58841H50.1056V0.987661ZM49.4326 1.11639L49.3792 1.73859C49.3685 1.72787 49.3472 1.72787 49.3258 1.71714C49.0583 1.6008 48.7728 1.53184 48.4818 1.51332C48.0545 1.51332 47.7127 1.64205 47.4563 1.91024C47.3256 2.05302 47.2243 2.22038 47.1583 2.40265C47.0923 2.58493 47.0629 2.77852 47.0717 2.97227C47.0631 3.16043 47.0939 3.34832 47.1619 3.52384C47.23 3.69936 47.3339 3.85863 47.467 3.99139C47.607 4.12259 47.7718 4.22434 47.9516 4.29066C48.1314 4.35698 48.3226 4.38654 48.5139 4.37759C48.7372 4.35942 48.9567 4.30884 49.1655 4.2274C49.2724 4.19522 49.3472 4.17376 49.4006 4.15231L49.4647 4.77451C49.4113 4.78524 49.3472 4.80669 49.251 4.82815C48.9909 4.91012 48.7219 4.96054 48.4498 4.97833C47.7768 4.97833 47.2426 4.79596 46.8581 4.43123C46.4735 4.06649 46.2705 3.57302 46.2705 2.96154C46.2705 2.35007 46.4628 1.84587 46.8581 1.45968C47.2533 1.07348 47.7661 0.891113 48.4071 0.891113C48.683 0.906019 48.9559 0.956494 49.219 1.0413C49.3151 1.08421 49.3899 1.09494 49.4326 1.11639V1.11639ZM42.0401 0.987661H42.8093V3.28337C42.8093 3.65884 42.8734 3.93776 43.0016 4.12013C43.1297 4.3025 43.3327 4.38832 43.5998 4.38832C43.7188 4.39507 43.8377 4.37216 43.9458 4.32163C44.0539 4.27109 44.1479 4.1945 44.2194 4.09867C44.3583 3.90557 44.4331 3.62665 44.4331 3.25119V0.987661H45.1595V3.26192C45.1595 3.83048 45.0313 4.27031 44.7749 4.54923C44.5185 4.82815 44.1232 4.97833 43.5998 4.97833C43.0763 4.97833 42.7024 4.83888 42.446 4.54923C42.1897 4.25958 42.0508 3.84121 42.0508 3.28337V0.987661H42.0401ZM37.6067 0.987661H38.7177C39.0039 0.983972 39.2899 1.00551 39.5724 1.05203C39.7767 1.08509 39.9727 1.15797 40.1492 1.26658C40.417 1.43433 40.6348 1.67152 40.7795 1.95315C40.9203 2.26296 40.9932 2.59954 40.9932 2.94009C40.9932 3.28064 40.9203 3.61721 40.7795 3.92703C40.6337 4.21138 40.4117 4.44918 40.1386 4.6136C39.9573 4.73037 39.7534 4.80715 39.5403 4.83887C39.251 4.8894 38.9579 4.91453 38.6643 4.91397H37.6067V0.987661V0.987661ZM38.3759 1.56695V4.30249H38.8246C39.2519 4.30249 39.5937 4.18449 39.8287 3.93775C40.0638 3.69102 40.192 3.35846 40.192 2.92936C40.192 2.50026 40.0745 2.15697 39.8287 1.92096C39.583 1.68496 39.2412 1.56695 38.7925 1.56695H38.3759ZM34.6369 0.901842C35.2138 0.901842 35.6624 1.08421 35.9936 1.44895C36.3248 1.81369 36.485 2.30716 36.485 2.95081C36.485 3.59447 36.3248 4.08794 35.9936 4.45268C35.6624 4.81742 35.2138 4.99979 34.6369 4.99979C34.06 4.99979 33.6113 4.81742 33.2802 4.45268C32.949 4.08794 32.7888 3.59447 32.7888 2.95081C32.7888 2.30716 32.949 1.81369 33.2802 1.44895C33.6113 1.08421 34.06 0.901842 34.6369 0.901842V0.901842ZM34.6369 1.48113C34.4858 1.47687 34.336 1.51102 34.2016 1.58041C34.0671 1.6498 33.9523 1.75218 33.8677 1.87805C33.6754 2.14624 33.5793 2.48953 33.5793 2.92936C33.5793 3.36919 33.6754 3.7232 33.8677 3.99139C33.9554 4.11409 34.0708 4.21406 34.2046 4.28303C34.3383 4.35199 34.4865 4.38796 34.6369 4.38796C34.7873 4.38796 34.9354 4.35199 35.0692 4.28303C35.203 4.21406 35.3184 4.11409 35.4061 3.99139C35.6153 3.67816 35.7201 3.30626 35.7052 2.92936C35.7052 2.48953 35.609 2.13552 35.4061 1.87805C35.3199 1.75385 35.2047 1.65273 35.0706 1.58354C34.9365 1.51435 34.7876 1.47919 34.6369 1.48113V1.48113ZM29.1139 0.987661H30.3958C30.8765 0.987661 31.2291 1.07348 31.4641 1.2344C31.5808 1.31988 31.6742 1.43345 31.7358 1.56466C31.7974 1.69587 31.8252 1.84052 31.8166 1.98533C31.8249 2.21219 31.7487 2.43402 31.603 2.60753C31.443 2.78393 31.2285 2.90107 30.994 2.94009C31.0946 2.97161 31.1861 3.02678 31.2611 3.101C31.3566 3.23213 31.4322 3.37673 31.4855 3.53011L32.0303 4.89251H31.2184L30.7804 3.71247C30.7408 3.56993 30.6542 3.44512 30.5347 3.35846C30.4007 3.28541 30.2488 3.25194 30.0967 3.26192H29.851V4.90324H29.1139V0.987661ZM29.8724 1.53477V2.71481H30.2676C30.4706 2.72472 30.6718 2.67234 30.8445 2.56462C30.9128 2.51469 30.9672 2.44809 31.0028 2.37113C31.0383 2.29417 31.0537 2.20938 31.0475 2.12479C31.0548 2.03853 31.04 1.95181 31.0045 1.87293C30.9689 1.79405 30.9139 1.72564 30.8445 1.67423C30.7056 1.57768 30.5026 1.53477 30.2035 1.53477H29.8724ZM25.4924 0.987661H26.6568C27.1589 0.987661 27.5328 1.08421 27.7785 1.28803C28.0242 1.49186 28.1417 1.79223 28.1417 2.21061C28.1507 2.3788 28.1207 2.54679 28.0539 2.70131C27.9872 2.85584 27.8856 2.99267 27.7571 3.101C27.5008 3.31555 27.1375 3.42283 26.6782 3.42283H26.2616V4.91397H25.4924V0.987661V0.987661ZM26.2616 1.53477V2.85427H26.5714C26.8277 2.85427 27.02 2.80063 27.1482 2.68262C27.2173 2.62373 27.2717 2.54936 27.3069 2.46552C27.3422 2.38167 27.3574 2.29068 27.3512 2.19988C27.3567 2.10855 27.3424 2.0171 27.3092 1.93189C27.276 1.84667 27.2247 1.76974 27.1589 1.70641C27.0056 1.5817 26.8108 1.52033 26.6141 1.53477H26.2616Z" fill="white"/>
</svg>
