<svg width="20" height="16" viewBox="0 0 20 16" fill="none" xmlns="http://www.w3.org/2000/svg">
<path d="M19.5817 3.15493C19.4687 2.72933 19.2459 2.34088 18.9355 2.02849C18.6252 1.71609 18.2382 1.49072 17.8133 1.37494C16.2542 0.954102 10 0.954102 10 0.954102C10 0.954102 3.74583 0.954102 2.18583 1.37494C1.76117 1.49092 1.37441 1.71638 1.06423 2.02875C0.754051 2.34113 0.531326 2.72947 0.418333 3.15493C0 4.72494 0 7.99994 0 7.99994C0 7.99994 0 11.2749 0.418333 12.8449C0.531322 13.2705 0.754146 13.659 1.06449 13.9714C1.37484 14.2838 1.76181 14.5092 2.18667 14.6249C3.74583 15.0458 10 15.0458 10 15.0458C10 15.0458 16.2542 15.0458 17.8142 14.6249C18.2391 14.5092 18.6261 14.2839 18.9364 13.9715C19.2468 13.6591 19.4696 13.2706 19.5825 12.8449C20 11.2749 20 7.99994 20 7.99994C20 7.99994 20 4.72494 19.5817 3.15493ZM7.95417 10.9733V5.0266L13.1817 7.99994L7.95417 10.9733Z" fill="#B31851"/>
</svg>
