<svg width="53" height="5" viewBox="0 0 53 5" fill="none" xmlns="http://www.w3.org/2000/svg">
<path fill-rule="evenodd" clip-rule="evenodd" d="M8.04732 4.90275V2.16721H6.96836V0.997901H10.6326V2.18867H9.63907V4.90275H8.04732ZM15.974 4.90275V2.18867H14.9164V0.997901H18.602V2.21012H17.5764V4.90275H15.974ZM10.4616 4.90275L11.9145 0.997901H13.6238L15.0553 4.90275H13.5169L12.7691 2.64995L12.0213 4.90275H10.4616ZM18.3883 4.90275L19.8412 0.997901H21.5291L22.9606 4.90275H21.4436L20.6958 2.64995L19.9053 4.90275H18.3883ZM2.8982 1.64156L2.23586 3.41161H3.5178L2.8982 1.64156ZM2.44952 0.976446H3.37893L4.89589 4.91348H4.06263L3.74214 3.98018H2.03289L1.69104 4.91348H0.921875L2.44952 0.976446ZM50.1056 0.987173H52.9473V1.58792H51.9003V4.90275H51.1312V1.58792H50.1056V0.987173ZM49.4326 1.11591L49.3792 1.73811C49.3685 1.72738 49.3472 1.72738 49.3258 1.71665C49.0583 1.60031 48.7728 1.53135 48.4818 1.51283C48.0545 1.51283 47.7127 1.64156 47.4563 1.90975C47.3256 2.05253 47.2243 2.21989 47.1583 2.40216C47.0923 2.58444 47.0629 2.77803 47.0717 2.97178C47.0631 3.15995 47.0939 3.34783 47.1619 3.52335C47.23 3.69887 47.3339 3.85814 47.467 3.9909C47.607 4.1221 47.7718 4.22385 47.9516 4.29017C48.1314 4.35649 48.3226 4.38605 48.5139 4.3771C48.7372 4.35894 48.9567 4.30835 49.1655 4.22691C49.2724 4.19473 49.3472 4.17327 49.4006 4.15182L49.4647 4.77402C49.4113 4.78475 49.3472 4.80621 49.251 4.82766C48.9909 4.90963 48.7219 4.96005 48.4498 4.97785C47.7768 4.97785 47.2426 4.79548 46.8581 4.43074C46.4735 4.066 46.2705 3.57253 46.2705 2.96105C46.2705 2.34958 46.4628 1.84538 46.8581 1.45919C47.2533 1.07299 47.7661 0.890625 48.4071 0.890625C48.683 0.905531 48.9559 0.956006 49.219 1.04081C49.3151 1.08372 49.3899 1.09445 49.4326 1.11591ZM42.0401 0.987173H42.8093V3.28288C42.8093 3.65835 42.8734 3.93727 43.0016 4.11964C43.1297 4.30201 43.3327 4.38783 43.5998 4.38783C43.7188 4.39458 43.8377 4.37167 43.9458 4.32114C44.0539 4.2706 44.1479 4.19401 44.2194 4.09818C44.3583 3.90508 44.4331 3.62617 44.4331 3.2507V0.987173H45.1595V3.26143C45.1595 3.82999 45.0313 4.26982 44.7749 4.54874C44.5185 4.82766 44.1232 4.97785 43.5998 4.97785C43.0763 4.97785 42.7024 4.83839 42.446 4.54874C42.1897 4.2591 42.0508 3.84072 42.0508 3.28288V0.987173H42.0401ZM37.6067 0.987173H38.7177C39.0039 0.983484 39.2899 1.00502 39.5724 1.05154C39.7767 1.0846 39.9727 1.15749 40.1492 1.26609C40.417 1.43384 40.6348 1.67103 40.7795 1.95266C40.9203 2.26247 40.9932 2.59905 40.9932 2.9396C40.9932 3.28015 40.9203 3.61672 40.7795 3.92654C40.6337 4.21089 40.4117 4.44869 40.1386 4.61311C39.9573 4.72988 39.7534 4.80667 39.5403 4.83839C39.251 4.88892 38.9579 4.91404 38.6643 4.91348H37.6067V0.987173ZM38.3759 1.56646V4.302H38.8246C39.2519 4.302 39.5937 4.184 39.8288 3.93727C40.0638 3.69053 40.192 3.35798 40.192 2.92887C40.192 2.49977 40.0745 2.15648 39.8288 1.92048C39.583 1.68447 39.2412 1.56646 38.7925 1.56646H38.3759ZM34.6369 0.901353C35.2138 0.901353 35.6624 1.08372 35.9936 1.44846C36.3248 1.8132 36.485 2.30667 36.485 2.95033C36.485 3.59398 36.3248 4.08746 35.9936 4.45219C35.6624 4.81693 35.2138 4.9993 34.6369 4.9993C34.06 4.9993 33.6113 4.81693 33.2802 4.45219C32.949 4.08746 32.7888 3.59398 32.7888 2.95033C32.7888 2.30667 32.949 1.8132 33.2802 1.44846C33.6113 1.08372 34.06 0.901353 34.6369 0.901353ZM34.6369 1.48064C34.4858 1.47638 34.336 1.51053 34.2016 1.57993C34.0671 1.64932 33.9523 1.7517 33.8677 1.87757C33.6754 2.14576 33.5793 2.48904 33.5793 2.92887C33.5793 3.3687 33.6754 3.72271 33.8677 3.9909C33.9554 4.1136 34.0708 4.21358 34.2046 4.28254C34.3383 4.3515 34.4865 4.38747 34.6369 4.38747C34.7873 4.38747 34.9354 4.3515 35.0692 4.28254C35.203 4.21358 35.3184 4.1136 35.4061 3.9909C35.6153 3.67767 35.7201 3.30577 35.7052 2.92887C35.7052 2.48904 35.609 2.13503 35.4061 1.87757C35.3199 1.75336 35.2047 1.65224 35.0706 1.58305C34.9366 1.51386 34.7876 1.4787 34.6369 1.48064ZM29.1139 0.987173H30.3958C30.8765 0.987173 31.2291 1.07299 31.4641 1.23391C31.5808 1.31939 31.6742 1.43296 31.7358 1.56417C31.7974 1.69538 31.8252 1.84004 31.8166 1.98484C31.8249 2.2117 31.7487 2.43353 31.603 2.60704C31.443 2.78344 31.2285 2.90058 30.994 2.9396C31.0946 2.97112 31.1861 3.02629 31.2611 3.10051C31.3566 3.23164 31.4322 3.37624 31.4855 3.52962L32.0303 4.89202H31.2184L30.7804 3.71199C30.7408 3.56944 30.6542 3.44463 30.5347 3.35798C30.4007 3.28492 30.2488 3.25145 30.0967 3.26143H29.851V4.90275H29.1139V0.987173ZM29.8724 1.53428V2.71432H30.2676C30.4706 2.72423 30.6718 2.67185 30.8445 2.56413C30.9128 2.5142 30.9672 2.4476 31.0028 2.37064C31.0383 2.29368 31.0537 2.2089 31.0475 2.1243C31.0548 2.03804 31.04 1.95133 31.0045 1.87244C30.9689 1.79356 30.9139 1.72515 30.8445 1.67374C30.7056 1.57719 30.5026 1.53428 30.2035 1.53428H29.8724ZM25.4924 0.987173H26.6568C27.1589 0.987173 27.5328 1.08372 27.7785 1.28755C28.0242 1.49137 28.1417 1.79174 28.1417 2.21012C28.1507 2.37831 28.1207 2.5463 28.0539 2.70083C27.9872 2.85535 27.8856 2.99218 27.7571 3.10051C27.5008 3.31507 27.1375 3.42234 26.6782 3.42234H26.2616V4.91348H25.4924V0.987173ZM26.2616 1.53428V2.85378H26.5714C26.8277 2.85378 27.02 2.80014 27.1482 2.68214C27.2173 2.62324 27.2717 2.54887 27.3069 2.46503C27.3422 2.38118 27.3574 2.2902 27.3512 2.19939C27.3567 2.10806 27.3424 2.01661 27.3092 1.9314C27.276 1.84619 27.2247 1.76925 27.1589 1.70592C27.0056 1.58122 26.8108 1.51984 26.6141 1.53428H26.2616Z" fill="white"/>
</svg>
