<svg width="20" height="18" viewBox="0 0 20 18" fill="none" xmlns="http://www.w3.org/2000/svg">
<path d="M19.9608 2.80735C19.2121 3.13702 18.4188 3.35463 17.6067 3.45318C18.4618 2.93922 19.102 2.13322 19.4092 1.18401C18.6167 1.64651 17.7383 1.98318 16.8033 2.17068C16.1865 1.51104 15.3691 1.07353 14.478 0.926099C13.587 0.778666 12.6722 0.929557 11.8758 1.35534C11.0793 1.78112 10.4457 2.45797 10.0734 3.28078C9.70104 4.1036 9.6108 5.02632 9.81667 5.90568C6.40833 5.74485 3.38917 4.10735 1.36667 1.63401C0.998995 2.25886 0.80722 2.97154 0.811667 3.69652C0.811667 5.12152 1.53667 6.37402 2.635 7.10985C1.98405 7.08913 1.34748 6.91313 0.778333 6.59652V6.64652C0.777964 7.59351 1.10522 8.51147 1.70459 9.24465C2.30395 9.97783 3.13851 10.4811 4.06667 10.669C3.46525 10.8302 2.83534 10.8544 2.22333 10.7398C2.48677 11.5549 2.99805 12.2673 3.68585 12.7778C4.37364 13.2882 5.20363 13.5713 6.06 13.5873C4.60961 14.7256 2.81873 15.3434 0.975 15.3415C0.65 15.3415 0.325833 15.3224 0 15.2857C1.87976 16.4893 4.06543 17.1282 6.2975 17.1265C13.8417 17.1265 17.9625 10.8798 17.9625 5.47235C17.9625 5.29735 17.9625 5.12235 17.95 4.94735C18.755 4.36807 19.4494 3.64886 20 2.82402L19.9608 2.80735Z" fill="#B31851"/>
</svg>
