<svg width="74" height="15" viewBox="0 0 74 15" fill="none" xmlns="http://www.w3.org/2000/svg">
<path d="M29.5915 1.15858H30.382V8.88247C30.382 9.52612 30.0935 9.15066 30.0295 9.02192L25.1794 1.50187C23.9402 -0.354011 22.3378 1.19077 21.5473 0L21.1947 0.0858208L21.9532 1.26586C22.0707 1.44823 22.0921 1.54478 22.0921 1.85588V13.431C22.0921 14.2248 22.6156 14.5145 23.0429 14.5145H23.2672V13.7421H23.1283C22.9574 13.7421 22.8613 13.6026 22.8613 13.431V3.00373C22.8613 2.69263 22.9574 2.81064 22.9788 2.85355L30.5102 14.5145H31.1511V1.15858H31.9737V0.439832H29.6021V1.15858H29.5915ZM10.7576 0.439832H0V1.15858H4.72181C4.52978 1.25577 4.36826 1.40441 4.25513 1.58806C4.14201 1.77171 4.08169 1.98322 4.08084 2.19916V14.4394H5.52303C5.6747 14.4399 5.82498 14.4104 5.96521 14.3523C6.10545 14.2943 6.23286 14.209 6.34011 14.1013C6.44736 13.9936 6.53232 13.8657 6.5901 13.7248C6.64788 13.584 6.67734 13.4331 6.67677 13.2808V1.81297C6.67677 1.37314 6.94384 1.14785 7.25364 1.14785H10.7576V0.439832ZM42.0049 13.6777H36.7703C36.9215 13.5713 37.045 13.43 37.1305 13.2658C37.216 13.1015 37.261 12.919 37.2617 12.7337V8.16372C37.2617 7.8848 37.422 7.74534 37.6143 7.74534H41.2037V7.02659H37.6143C37.3686 7.02659 37.2617 6.83349 37.2617 6.60821V1.81297C37.2617 1.37314 37.5288 1.14785 37.8386 1.14785H43.0198V0.439832H34.0676V1.15858H35.3068C35.1147 1.25577 34.9532 1.40441 34.8401 1.58806C34.727 1.77171 34.6666 1.98322 34.6658 2.19916V14.4394H42.0797C42.9984 14.4394 43.0625 13.8172 43.0625 13.3237H42.3147C42.3147 13.4846 42.3147 13.6777 42.0049 13.6777ZM19.838 13.3881L15.8533 0.439832H15.0414L10.2983 14.4286H10.6615C11.1315 13.0662 13.0651 14.1819 13.8129 12.0793L16.1952 5.05271C16.2379 4.91325 16.3661 4.77379 16.5157 5.23508V5.22435C17.6374 8.86101 19.0582 13.4846 19.0582 13.4846C19.1543 13.7957 19.368 14.5145 20.1799 14.5145H20.3829V13.7421H20.2012C19.9662 13.7421 19.8914 13.5704 19.838 13.3881ZM73.8077 13.7421C73.5834 13.7421 73.5086 13.5704 73.4552 13.3881L69.4705 0.439832H68.6586L63.9154 14.4286H64.2786C64.7487 13.0662 66.6823 14.1819 67.4301 12.0793L69.8123 5.05271C69.8551 4.91325 69.9833 4.77379 70.1328 5.23508V5.22435C71.2545 8.86101 72.6753 13.4846 72.6753 13.4846C72.7715 13.7957 72.9851 14.5145 73.797 14.5145H74V13.7421H73.8077ZM59.0013 8.3139C59.9231 8.03815 60.7152 7.4384 61.2328 6.62433C61.7505 5.81027 61.959 4.8363 61.8202 3.88055C61.6815 2.92479 61.2048 2.05113 60.4772 1.41934C59.7497 0.787548 58.8201 0.439849 57.8582 0.439832H51.9186V1.15858H53.2753C53.0833 1.25577 52.9217 1.40441 52.8086 1.58806C52.6955 1.77171 52.6352 1.98322 52.6343 2.19916V14.4394H54.0765C54.2282 14.4399 54.3785 14.4104 54.5187 14.3523C54.6589 14.2943 54.7864 14.209 54.8936 14.1013C55.0008 13.9936 55.0858 13.8657 55.1436 13.7248C55.2014 13.584 55.2308 13.4331 55.2303 13.2808V1.81297C55.2303 1.37314 55.4973 1.14785 55.8071 1.14785H57.8476C58.2796 1.14785 58.7075 1.23332 59.1067 1.39936C59.5059 1.56541 59.8686 1.80879 60.1742 2.1156C60.4797 2.42242 60.7221 2.78666 60.8874 3.18753C61.0528 3.58841 61.1379 4.01806 61.1379 4.45196C61.1379 4.88586 61.0528 5.31552 60.8874 5.71639C60.7221 6.11726 60.4797 6.4815 60.1742 6.78832C59.8686 7.09513 59.5059 7.33851 59.1067 7.50456C58.7075 7.6706 58.2796 7.75607 57.8476 7.75607H55.7858V8.47482H56.1703C56.3306 8.47482 56.6404 8.57136 56.8861 9.0112L59.0227 12.9053C60.0055 14.6432 61.4904 13.3022 62.1207 14.4179H62.4839L59.2577 8.53918C59.1948 8.44158 59.106 8.36356 59.0013 8.3139ZM45.1457 1.15858H46.5024C46.3103 1.25577 46.1488 1.40441 46.0357 1.58806C45.9226 1.77171 45.8623 1.98322 45.8614 2.19916V13.6884H45.1457V14.4394H49.1838V13.6884H47.9766C48.1278 13.582 48.2513 13.4408 48.3368 13.2765C48.4223 13.1122 48.4673 12.9298 48.468 12.7444V1.81297C48.468 1.37314 48.7351 1.14785 49.0449 1.14785H49.4615V0.439832H45.1457V1.15858Z" fill="white"/>
</svg>
