<svg width="20" height="16" viewBox="0 0 20 16" fill="none" xmlns="http://www.w3.org/2000/svg">
<path d="M19.5817 3.15396C19.4687 2.72835 19.2459 2.33991 18.9355 2.02751C18.6252 1.71512 18.2382 1.48974 17.8133 1.37396C16.2542 0.953125 10 0.953125 10 0.953125C10 0.953125 3.74583 0.953125 2.18583 1.37396C1.76117 1.48995 1.37441 1.7154 1.06423 2.02778C0.754051 2.34015 0.531326 2.72849 0.418333 3.15396C0 4.72396 0 7.99896 0 7.99896C0 7.99896 0 11.274 0.418333 12.844C0.531322 13.2696 0.754146 13.658 1.06449 13.9704C1.37484 14.2828 1.76181 14.5082 2.18667 14.624C3.74583 15.0448 10 15.0448 10 15.0448C10 15.0448 16.2542 15.0448 17.8142 14.624C18.2391 14.5083 18.6261 14.2829 18.9364 13.9705C19.2468 13.6581 19.4696 13.2696 19.5825 12.844C20 11.274 20 7.99896 20 7.99896C20 7.99896 20 4.72396 19.5817 3.15396ZM7.95417 10.9723V5.02563L13.1817 7.99896L7.95417 10.9723Z" fill="#B31851"/>
</svg>
